<mxfile host="app.diagrams.net" modified="2021-09-11T13:32:09.757Z" agent="5.0 (X11; Linux x86_64) AppleWebKit/537.36 (KHTML, like Gecko) Chrome/91.0.4472.114 Safari/537.36" etag="zHHZBrBac79HJXIDWuVM" version="15.1.4" type="github">
  <diagram id="6a731a19-8d31-9384-78a2-239565b7b9f0" name="Page-1">
    <mxGraphModel dx="775" dy="-385" grid="1" gridSize="10" guides="1" tooltips="1" connect="1" arrows="1" fold="1" page="1" pageScale="1" pageWidth="1169" pageHeight="827" background="none" math="0" shadow="0">
      <root>
        <mxCell id="0" />
        <mxCell id="1" parent="0" />
        <mxCell id="em-1HlqMXCPZLSbGFmnV-1807" style="edgeStyle=orthogonalEdgeStyle;curved=1;orthogonalLoop=1;jettySize=auto;html=1;strokeColor=#12AAB5;endArrow=none;endFill=0;" parent="1" source="em-1HlqMXCPZLSbGFmnV-1786" target="em-1HlqMXCPZLSbGFmnV-1806" edge="1">
          <mxGeometry relative="1" as="geometry" />
        </mxCell>
        <mxCell id="em-1HlqMXCPZLSbGFmnV-1786" value="&lt;span style=&quot;color: rgb(255 , 255 , 255)&quot;&gt;laser_sub&lt;/span&gt;&lt;br style=&quot;color: rgb(255 , 255 , 255)&quot;&gt;&lt;span style=&quot;color: rgb(255 , 255 , 255)&quot;&gt;订阅cartographer估计位置&lt;/span&gt;" style="whiteSpace=wrap;html=1;rounded=1;arcSize=50;align=center;verticalAlign=middle;strokeWidth=1;autosize=1;spacing=4;treeFolding=1;treeMoving=1;newEdgeStyle={&quot;edgeStyle&quot;:&quot;entityRelationEdgeStyle&quot;,&quot;startArrow&quot;:&quot;none&quot;,&quot;endArrow&quot;:&quot;none&quot;,&quot;segment&quot;:10,&quot;curved&quot;:1};shadow=0;sketch=0;fillColor=#12AAB5;gradientColor=none;strokeColor=none;" parent="1" vertex="1">
          <mxGeometry x="688.88" y="920" width="180" height="40" as="geometry" />
        </mxCell>
        <mxCell id="em-1HlqMXCPZLSbGFmnV-1787" value="" style="edgeStyle=entityRelationEdgeStyle;startArrow=blockThin;endArrow=none;segment=10;curved=1;strokeColor=#12AAB5;exitX=1;exitY=0.167;exitDx=0;exitDy=0;exitPerimeter=0;startFill=1;" parent="1" source="em-1HlqMXCPZLSbGFmnV-1852" target="em-1HlqMXCPZLSbGFmnV-1786" edge="1">
          <mxGeometry relative="1" as="geometry">
            <mxPoint x="605.4982172339868" y="1085.833599970738" as="sourcePoint" />
          </mxGeometry>
        </mxCell>
        <mxCell id="em-1HlqMXCPZLSbGFmnV-1809" style="edgeStyle=orthogonalEdgeStyle;curved=1;orthogonalLoop=1;jettySize=auto;html=1;strokeColor=#12AAB5;endArrow=none;endFill=0;" parent="1" source="em-1HlqMXCPZLSbGFmnV-1798" target="em-1HlqMXCPZLSbGFmnV-1808" edge="1">
          <mxGeometry relative="1" as="geometry" />
        </mxCell>
        <mxCell id="em-1HlqMXCPZLSbGFmnV-1798" value="&lt;span style=&quot;color: rgb(255 , 255 , 255)&quot;&gt;t265_sub&lt;/span&gt;&lt;br style=&quot;color: rgb(255 , 255 , 255)&quot;&gt;&lt;span style=&quot;color: rgb(255 , 255 , 255)&quot;&gt;订阅t265估计位置&lt;/span&gt;" style="whiteSpace=wrap;html=1;rounded=1;arcSize=50;align=center;verticalAlign=middle;strokeWidth=1;autosize=1;spacing=4;treeFolding=1;treeMoving=1;newEdgeStyle={&quot;edgeStyle&quot;:&quot;entityRelationEdgeStyle&quot;,&quot;startArrow&quot;:&quot;none&quot;,&quot;endArrow&quot;:&quot;none&quot;,&quot;segment&quot;:10,&quot;curved&quot;:1};shadow=0;sketch=0;fillColor=#12AAB5;gradientColor=none;strokeColor=none;" parent="1" vertex="1">
          <mxGeometry x="688.88" y="970" width="140" height="40" as="geometry" />
        </mxCell>
        <mxCell id="em-1HlqMXCPZLSbGFmnV-1799" value="" style="edgeStyle=entityRelationEdgeStyle;startArrow=blockThin;endArrow=none;segment=10;curved=1;strokeColor=#12AAB5;exitX=0.997;exitY=0.356;exitDx=0;exitDy=0;exitPerimeter=0;startFill=1;" parent="1" source="em-1HlqMXCPZLSbGFmnV-1852" target="em-1HlqMXCPZLSbGFmnV-1798" edge="1">
          <mxGeometry relative="1" as="geometry">
            <mxPoint x="616.88" y="1090.56" as="sourcePoint" />
          </mxGeometry>
        </mxCell>
        <mxCell id="em-1HlqMXCPZLSbGFmnV-1811" style="edgeStyle=orthogonalEdgeStyle;curved=1;orthogonalLoop=1;jettySize=auto;html=1;strokeColor=#12AAB5;endArrow=none;endFill=0;" parent="1" source="em-1HlqMXCPZLSbGFmnV-1800" target="em-1HlqMXCPZLSbGFmnV-1810" edge="1">
          <mxGeometry relative="1" as="geometry" />
        </mxCell>
        <mxCell id="em-1HlqMXCPZLSbGFmnV-1800" value="&lt;span style=&quot;color: rgb(255 , 255 , 255)&quot;&gt;gazebo_sub&lt;/span&gt;&lt;br style=&quot;color: rgb(255 , 255 , 255)&quot;&gt;&lt;span style=&quot;color: rgb(255 , 255 , 255)&quot;&gt;订阅&lt;/span&gt;&lt;font color=&quot;#ffffff&quot;&gt;gazebo仿真真值&lt;/font&gt;" style="whiteSpace=wrap;html=1;rounded=1;arcSize=50;align=center;verticalAlign=middle;strokeWidth=1;autosize=1;spacing=4;treeFolding=1;treeMoving=1;newEdgeStyle={&quot;edgeStyle&quot;:&quot;entityRelationEdgeStyle&quot;,&quot;startArrow&quot;:&quot;none&quot;,&quot;endArrow&quot;:&quot;none&quot;,&quot;segment&quot;:10,&quot;curved&quot;:1};shadow=0;sketch=0;fillColor=#12AAB5;gradientColor=none;strokeColor=none;" parent="1" vertex="1">
          <mxGeometry x="688.88" y="1020" width="150" height="40" as="geometry" />
        </mxCell>
        <mxCell id="em-1HlqMXCPZLSbGFmnV-1801" value="" style="edgeStyle=entityRelationEdgeStyle;startArrow=blockThin;endArrow=none;segment=10;curved=1;strokeColor=#12AAB5;exitX=1.003;exitY=0.578;exitDx=0;exitDy=0;exitPerimeter=0;startFill=1;" parent="1" source="em-1HlqMXCPZLSbGFmnV-1852" target="em-1HlqMXCPZLSbGFmnV-1800" edge="1">
          <mxGeometry relative="1" as="geometry">
            <mxPoint x="621.755" y="1094.1200000000001" as="sourcePoint" />
          </mxGeometry>
        </mxCell>
        <mxCell id="em-1HlqMXCPZLSbGFmnV-1813" style="edgeStyle=orthogonalEdgeStyle;curved=1;orthogonalLoop=1;jettySize=auto;html=1;strokeColor=#12AAB5;endArrow=none;endFill=0;" parent="1" source="em-1HlqMXCPZLSbGFmnV-1803" target="em-1HlqMXCPZLSbGFmnV-1812" edge="1">
          <mxGeometry relative="1" as="geometry" />
        </mxCell>
        <mxCell id="em-1HlqMXCPZLSbGFmnV-1803" value="&lt;span style=&quot;color: rgb(255 , 255 , 255)&quot;&gt;slam_sub&lt;/span&gt;&lt;br style=&quot;color: rgb(255 , 255 , 255)&quot;&gt;&lt;span style=&quot;color: rgb(255 , 255 , 255)&quot;&gt;订阅&lt;/span&gt;&lt;font color=&quot;#ffffff&quot;&gt;SLAM估计位姿&lt;/font&gt;" style="whiteSpace=wrap;html=1;rounded=1;arcSize=50;align=center;verticalAlign=middle;strokeWidth=1;autosize=1;spacing=4;treeFolding=1;treeMoving=1;newEdgeStyle={&quot;edgeStyle&quot;:&quot;entityRelationEdgeStyle&quot;,&quot;startArrow&quot;:&quot;none&quot;,&quot;endArrow&quot;:&quot;none&quot;,&quot;segment&quot;:10,&quot;curved&quot;:1};shadow=0;sketch=0;fillColor=#12AAB5;gradientColor=none;strokeColor=none;" parent="1" vertex="1">
          <mxGeometry x="688.88" y="1070" width="150" height="40" as="geometry" />
        </mxCell>
        <mxCell id="em-1HlqMXCPZLSbGFmnV-1804" value="" style="edgeStyle=entityRelationEdgeStyle;startArrow=blockThin;endArrow=none;segment=10;curved=1;strokeColor=#12AAB5;exitX=1;exitY=0.75;exitDx=0;exitDy=0;startFill=1;" parent="1" source="em-1HlqMXCPZLSbGFmnV-1852" target="em-1HlqMXCPZLSbGFmnV-1803" edge="1">
          <mxGeometry relative="1" as="geometry">
            <mxPoint x="625.13" y="1099.6000000000001" as="sourcePoint" />
          </mxGeometry>
        </mxCell>
        <mxCell id="em-1HlqMXCPZLSbGFmnV-1806" value="&lt;font color=&quot;#ffffff&quot;&gt;&amp;lt;tf2_msgs::TFMessage&amp;gt;(&quot;/tf&quot;, 100, laser_cb)&lt;/font&gt;" style="whiteSpace=wrap;html=1;rounded=1;arcSize=50;align=center;verticalAlign=middle;strokeWidth=1;autosize=1;spacing=4;treeFolding=1;treeMoving=1;newEdgeStyle={&quot;edgeStyle&quot;:&quot;entityRelationEdgeStyle&quot;,&quot;startArrow&quot;:&quot;none&quot;,&quot;endArrow&quot;:&quot;none&quot;,&quot;segment&quot;:10,&quot;curved&quot;:1};shadow=0;sketch=0;gradientColor=none;strokeColor=none;fillColor=#61C6CE;" parent="1" vertex="1">
          <mxGeometry x="898.88" y="925" width="280" height="30" as="geometry" />
        </mxCell>
        <mxCell id="em-1HlqMXCPZLSbGFmnV-1808" value="&lt;font color=&quot;#ffffff&quot;&gt;&amp;lt;nav_msgs::Odometry&amp;gt;(&quot;/t265/odom/sample&quot;, 100, t265_cb);&lt;/font&gt;" style="whiteSpace=wrap;html=1;rounded=1;arcSize=50;align=center;verticalAlign=middle;strokeWidth=1;autosize=1;spacing=4;treeFolding=1;treeMoving=1;newEdgeStyle={&quot;edgeStyle&quot;:&quot;entityRelationEdgeStyle&quot;,&quot;startArrow&quot;:&quot;none&quot;,&quot;endArrow&quot;:&quot;none&quot;,&quot;segment&quot;:10,&quot;curved&quot;:1};shadow=0;sketch=0;gradientColor=none;strokeColor=none;fillColor=#61C6CE;" parent="1" vertex="1">
          <mxGeometry x="898.88" y="975" width="370" height="30" as="geometry" />
        </mxCell>
        <mxCell id="em-1HlqMXCPZLSbGFmnV-1810" value="&lt;font color=&quot;#ffffff&quot;&gt;&amp;lt;nav_msgs::Odometry&amp;gt;(&quot;/prometheus/ground_truth/p300_basic&quot;, 100, gazebo_cb)&lt;/font&gt;" style="whiteSpace=wrap;html=1;rounded=1;arcSize=50;align=center;verticalAlign=middle;strokeWidth=1;autosize=1;spacing=4;treeFolding=1;treeMoving=1;newEdgeStyle={&quot;edgeStyle&quot;:&quot;entityRelationEdgeStyle&quot;,&quot;startArrow&quot;:&quot;none&quot;,&quot;endArrow&quot;:&quot;none&quot;,&quot;segment&quot;:10,&quot;curved&quot;:1};shadow=0;sketch=0;gradientColor=none;strokeColor=none;fillColor=#61C6CE;" parent="1" vertex="1">
          <mxGeometry x="898.88" y="1025" width="480" height="30" as="geometry" />
        </mxCell>
        <mxCell id="em-1HlqMXCPZLSbGFmnV-1812" value="&lt;font color=&quot;#ffffff&quot;&gt;&amp;lt;geometry_msgs::PoseStamped&amp;gt;(&quot;/slam/pose&quot;, 100, slam_cb)&lt;/font&gt;" style="whiteSpace=wrap;html=1;rounded=1;arcSize=50;align=center;verticalAlign=middle;strokeWidth=1;autosize=1;spacing=4;treeFolding=1;treeMoving=1;newEdgeStyle={&quot;edgeStyle&quot;:&quot;entityRelationEdgeStyle&quot;,&quot;startArrow&quot;:&quot;none&quot;,&quot;endArrow&quot;:&quot;none&quot;,&quot;segment&quot;:10,&quot;curved&quot;:1};shadow=0;sketch=0;gradientColor=none;strokeColor=none;fillColor=#61C6CE;" parent="1" vertex="1">
          <mxGeometry x="898.88" y="1075" width="370" height="30" as="geometry" />
        </mxCell>
        <mxCell id="em-1HlqMXCPZLSbGFmnV-1818" style="edgeStyle=orthogonalEdgeStyle;curved=1;orthogonalLoop=1;jettySize=auto;html=1;strokeColor=#12AAB5;endArrow=none;endFill=0;" parent="1" source="em-1HlqMXCPZLSbGFmnV-1815" target="em-1HlqMXCPZLSbGFmnV-1817" edge="1">
          <mxGeometry relative="1" as="geometry" />
        </mxCell>
        <mxCell id="em-1HlqMXCPZLSbGFmnV-1815" value="&lt;span style=&quot;color: rgb(255 , 255 , 255)&quot;&gt;vision_pub&amp;nbsp;&lt;/span&gt;&lt;font color=&quot;#ffffff&quot;&gt;发布无人&lt;br&gt;机位置和偏航角&lt;/font&gt;" style="whiteSpace=wrap;html=1;rounded=1;arcSize=50;align=center;verticalAlign=middle;strokeWidth=1;autosize=1;spacing=4;treeFolding=1;treeMoving=1;newEdgeStyle={&quot;edgeStyle&quot;:&quot;entityRelationEdgeStyle&quot;,&quot;startArrow&quot;:&quot;none&quot;,&quot;endArrow&quot;:&quot;none&quot;,&quot;segment&quot;:10,&quot;curved&quot;:1};shadow=0;sketch=0;gradientColor=none;strokeColor=none;fillColor=#1699D3;" parent="1" vertex="1">
          <mxGeometry x="688.88" y="1120" width="150" height="40" as="geometry" />
        </mxCell>
        <mxCell id="em-1HlqMXCPZLSbGFmnV-1816" value="" style="edgeStyle=entityRelationEdgeStyle;startArrow=none;endArrow=blockThin;segment=10;curved=1;exitX=0.991;exitY=0.986;exitDx=0;exitDy=0;exitPerimeter=0;endFill=1;strokeColor=#1699D3;" parent="1" source="em-1HlqMXCPZLSbGFmnV-1852" target="em-1HlqMXCPZLSbGFmnV-1815" edge="1">
          <mxGeometry relative="1" as="geometry">
            <mxPoint x="616.13" y="1112" as="sourcePoint" />
          </mxGeometry>
        </mxCell>
        <mxCell id="em-1HlqMXCPZLSbGFmnV-1817" value="&lt;font color=&quot;#ffffff&quot;&gt;&amp;lt;geometry_msgs::PoseStamped&amp;gt;(&quot;/mavros/vision_pose/pose&quot;, 10)&lt;/font&gt;" style="whiteSpace=wrap;html=1;rounded=1;arcSize=50;align=center;verticalAlign=middle;strokeWidth=1;autosize=1;spacing=4;treeFolding=1;treeMoving=1;newEdgeStyle={&quot;edgeStyle&quot;:&quot;entityRelationEdgeStyle&quot;,&quot;startArrow&quot;:&quot;none&quot;,&quot;endArrow&quot;:&quot;none&quot;,&quot;segment&quot;:10,&quot;curved&quot;:1};shadow=0;sketch=0;gradientColor=none;strokeColor=none;fillColor=#64BBE2;" parent="1" vertex="1">
          <mxGeometry x="898.88" y="1125" width="400" height="30" as="geometry" />
        </mxCell>
        <mxCell id="em-1HlqMXCPZLSbGFmnV-1822" style="edgeStyle=orthogonalEdgeStyle;curved=1;orthogonalLoop=1;jettySize=auto;html=1;strokeColor=#12AAB5;endArrow=none;endFill=0;" parent="1" source="em-1HlqMXCPZLSbGFmnV-1819" target="em-1HlqMXCPZLSbGFmnV-1821" edge="1">
          <mxGeometry relative="1" as="geometry" />
        </mxCell>
        <mxCell id="em-1HlqMXCPZLSbGFmnV-1819" value="&lt;span style=&quot;color: rgb(255 , 255 , 255)&quot;&gt;drone_state_pub&lt;/span&gt;&lt;br style=&quot;color: rgb(255 , 255 , 255)&quot;&gt;&lt;font color=&quot;#ffffff&quot;&gt;发布无人机状态量&lt;/font&gt;" style="whiteSpace=wrap;html=1;rounded=1;arcSize=50;align=center;verticalAlign=middle;strokeWidth=1;autosize=1;spacing=4;treeFolding=1;treeMoving=1;newEdgeStyle={&quot;edgeStyle&quot;:&quot;entityRelationEdgeStyle&quot;,&quot;startArrow&quot;:&quot;none&quot;,&quot;endArrow&quot;:&quot;none&quot;,&quot;segment&quot;:10,&quot;curved&quot;:1};shadow=0;sketch=0;gradientColor=none;strokeColor=none;fillColor=#1699D3;" parent="1" vertex="1">
          <mxGeometry x="688.88" y="1168" width="140" height="40" as="geometry" />
        </mxCell>
        <mxCell id="em-1HlqMXCPZLSbGFmnV-1820" value="" style="edgeStyle=entityRelationEdgeStyle;startArrow=none;endArrow=blockThin;segment=10;curved=1;exitX=0.999;exitY=0.302;exitDx=0;exitDy=0;exitPerimeter=0;endFill=1;strokeColor=#1699D3;" parent="1" source="em-1HlqMXCPZLSbGFmnV-1856" target="em-1HlqMXCPZLSbGFmnV-1819" edge="1">
          <mxGeometry relative="1" as="geometry">
            <mxPoint x="609.505" y="1115.8" as="sourcePoint" />
          </mxGeometry>
        </mxCell>
        <mxCell id="em-1HlqMXCPZLSbGFmnV-1821" value="&lt;font color=&quot;#ffffff&quot;&gt;&amp;lt;prometheus_msgs::DroneState&amp;gt;(&quot;/prometheus/drone_state&quot;, 10)&lt;/font&gt;" style="whiteSpace=wrap;html=1;rounded=1;arcSize=50;align=center;verticalAlign=middle;strokeWidth=1;autosize=1;spacing=4;treeFolding=1;treeMoving=1;newEdgeStyle={&quot;edgeStyle&quot;:&quot;entityRelationEdgeStyle&quot;,&quot;startArrow&quot;:&quot;none&quot;,&quot;endArrow&quot;:&quot;none&quot;,&quot;segment&quot;:10,&quot;curved&quot;:1};shadow=0;sketch=0;gradientColor=none;strokeColor=none;fillColor=#64BBE2;" parent="1" vertex="1">
          <mxGeometry x="898.88" y="1173" width="390" height="30" as="geometry" />
        </mxCell>
        <mxCell id="em-1HlqMXCPZLSbGFmnV-1827" style="edgeStyle=orthogonalEdgeStyle;curved=1;orthogonalLoop=1;jettySize=auto;html=1;strokeColor=#12AAB5;endArrow=none;endFill=0;" parent="1" source="em-1HlqMXCPZLSbGFmnV-1824" target="em-1HlqMXCPZLSbGFmnV-1826" edge="1">
          <mxGeometry relative="1" as="geometry" />
        </mxCell>
        <mxCell id="em-1HlqMXCPZLSbGFmnV-1824" value="&lt;span style=&quot;color: rgb(255 , 255 , 255)&quot;&gt;odom_pub&lt;/span&gt;&lt;br style=&quot;color: rgb(255 , 255 , 255)&quot;&gt;&lt;font color=&quot;#ffffff&quot;&gt;发布无人机odometry&lt;/font&gt;" style="whiteSpace=wrap;html=1;rounded=1;arcSize=50;align=center;verticalAlign=middle;strokeWidth=1;autosize=1;spacing=4;treeFolding=1;treeMoving=1;newEdgeStyle={&quot;edgeStyle&quot;:&quot;entityRelationEdgeStyle&quot;,&quot;startArrow&quot;:&quot;none&quot;,&quot;endArrow&quot;:&quot;none&quot;,&quot;segment&quot;:10,&quot;curved&quot;:1};shadow=0;sketch=0;gradientColor=none;strokeColor=none;fillColor=#1699D3;" parent="1" vertex="1">
          <mxGeometry x="688.88" y="1219.9999999999998" width="150" height="40" as="geometry" />
        </mxCell>
        <mxCell id="em-1HlqMXCPZLSbGFmnV-1825" value="" style="edgeStyle=entityRelationEdgeStyle;startArrow=none;endArrow=blockThin;segment=10;curved=1;exitX=0.999;exitY=0.547;exitDx=0;exitDy=0;exitPerimeter=0;endFill=1;strokeColor=#1699D3;" parent="1" source="em-1HlqMXCPZLSbGFmnV-1856" target="em-1HlqMXCPZLSbGFmnV-1824" edge="1">
          <mxGeometry relative="1" as="geometry">
            <mxPoint x="599.005" y="1119.6000000000001" as="sourcePoint" />
          </mxGeometry>
        </mxCell>
        <mxCell id="em-1HlqMXCPZLSbGFmnV-1826" value="&lt;font color=&quot;#ffffff&quot;&gt;&amp;lt;nav_msgs::Odometry&amp;gt;(&quot;/prometheus/drone_odom&quot;, 10)&lt;/font&gt;" style="whiteSpace=wrap;html=1;rounded=1;arcSize=50;align=center;verticalAlign=middle;strokeWidth=1;autosize=1;spacing=4;treeFolding=1;treeMoving=1;newEdgeStyle={&quot;edgeStyle&quot;:&quot;entityRelationEdgeStyle&quot;,&quot;startArrow&quot;:&quot;none&quot;,&quot;endArrow&quot;:&quot;none&quot;,&quot;segment&quot;:10,&quot;curved&quot;:1};shadow=0;sketch=0;gradientColor=none;strokeColor=none;fillColor=#64BBE2;" parent="1" vertex="1">
          <mxGeometry x="898.88" y="1225" width="340" height="30" as="geometry" />
        </mxCell>
        <mxCell id="em-1HlqMXCPZLSbGFmnV-1832" style="edgeStyle=orthogonalEdgeStyle;curved=1;orthogonalLoop=1;jettySize=auto;html=1;strokeColor=#12AAB5;endArrow=none;endFill=0;" parent="1" source="em-1HlqMXCPZLSbGFmnV-1828" target="em-1HlqMXCPZLSbGFmnV-1831" edge="1">
          <mxGeometry relative="1" as="geometry" />
        </mxCell>
        <mxCell id="em-1HlqMXCPZLSbGFmnV-1828" value="&lt;span style=&quot;color: rgb(255 , 255 , 255)&quot;&gt;trajectory_pub&amp;nbsp;&lt;/span&gt;&lt;font color=&quot;#ffffff&quot;&gt;发布无人机&lt;br&gt;移动轨迹，用于RVIZ显示&lt;/font&gt;" style="whiteSpace=wrap;html=1;rounded=1;arcSize=50;align=center;verticalAlign=middle;strokeWidth=1;autosize=1;spacing=4;treeFolding=1;treeMoving=1;newEdgeStyle={&quot;edgeStyle&quot;:&quot;entityRelationEdgeStyle&quot;,&quot;startArrow&quot;:&quot;none&quot;,&quot;endArrow&quot;:&quot;none&quot;,&quot;segment&quot;:10,&quot;curved&quot;:1};shadow=0;sketch=0;gradientColor=none;strokeColor=none;fillColor=#1699D3;" parent="1" vertex="1">
          <mxGeometry x="688.88" y="1270.3999999999999" width="180" height="40" as="geometry" />
        </mxCell>
        <mxCell id="em-1HlqMXCPZLSbGFmnV-1829" value="" style="edgeStyle=entityRelationEdgeStyle;startArrow=none;endArrow=blockThin;segment=10;curved=1;exitX=1;exitY=0.75;exitDx=0;exitDy=0;endFill=1;strokeColor=#1699D3;" parent="1" source="em-1HlqMXCPZLSbGFmnV-1856" target="em-1HlqMXCPZLSbGFmnV-1828" edge="1">
          <mxGeometry relative="1" as="geometry">
            <mxPoint x="590.005" y="1119.6000000000001" as="sourcePoint" />
          </mxGeometry>
        </mxCell>
        <mxCell id="em-1HlqMXCPZLSbGFmnV-1831" value="&lt;font color=&quot;#ffffff&quot;&gt;&amp;lt;nav_msgs::Path&amp;gt;(&quot;/prometheus/drone_trajectory&quot;, 10)&lt;/font&gt;" style="whiteSpace=wrap;html=1;rounded=1;arcSize=50;align=center;verticalAlign=middle;strokeWidth=1;autosize=1;spacing=4;treeFolding=1;treeMoving=1;newEdgeStyle={&quot;edgeStyle&quot;:&quot;entityRelationEdgeStyle&quot;,&quot;startArrow&quot;:&quot;none&quot;,&quot;endArrow&quot;:&quot;none&quot;,&quot;segment&quot;:10,&quot;curved&quot;:1};shadow=0;sketch=0;gradientColor=none;strokeColor=none;fillColor=#64BBE2;" parent="1" vertex="1">
          <mxGeometry x="898.88" y="1275.4" width="330" height="30" as="geometry" />
        </mxCell>
        <mxCell id="em-1HlqMXCPZLSbGFmnV-1852" value="&lt;span style=&quot;color: rgb(255 , 255 , 255)&quot;&gt;send_to_fcu()&lt;/span&gt;&lt;font color=&quot;#ffffff&quot;&gt;&lt;br&gt;将采集的机载设备的定位信息及偏航角信息发送至飞控，&lt;br&gt;根据参数input_source选择定位信息来源&lt;/font&gt;" style="whiteSpace=wrap;html=1;rounded=0;arcSize=50;align=center;verticalAlign=middle;strokeWidth=1;autosize=1;spacing=4;treeFolding=1;treeMoving=1;newEdgeStyle={&quot;edgeStyle&quot;:&quot;entityRelationEdgeStyle&quot;,&quot;startArrow&quot;:&quot;none&quot;,&quot;endArrow&quot;:&quot;none&quot;,&quot;segment&quot;:10,&quot;curved&quot;:1};shadow=0;sketch=0;gradientColor=none;strokeColor=none;fillColor=#2F5B7C;" parent="1" vertex="1">
          <mxGeometry x="230" y="1019.9999999999998" width="340" height="60" as="geometry" />
        </mxCell>
        <mxCell id="em-1HlqMXCPZLSbGFmnV-1911" style="edgeStyle=orthogonalEdgeStyle;curved=1;orthogonalLoop=1;jettySize=auto;html=1;startArrow=none;startFill=0;endArrow=none;endFill=0;strokeColor=#2F5B7C;" parent="1" source="em-1HlqMXCPZLSbGFmnV-1856" target="em-1HlqMXCPZLSbGFmnV-1910" edge="1">
          <mxGeometry relative="1" as="geometry" />
        </mxCell>
        <mxCell id="em-1HlqMXCPZLSbGFmnV-1856" value="&lt;span style=&quot;color: rgb(255 , 255 , 255)&quot;&gt;pub_to_nodes(_state_from_mavros._DroneState)&lt;/span&gt;&lt;font color=&quot;#ffffff&quot;&gt;&lt;br&gt;发布无人机状态至其他节点，如px4_pos_controller.cpp节点&amp;nbsp; &amp;nbsp; &amp;nbsp; &amp;nbsp; &amp;nbsp;&lt;/font&gt;" style="whiteSpace=wrap;html=1;rounded=0;arcSize=50;align=center;verticalAlign=middle;strokeWidth=1;autosize=1;spacing=4;treeFolding=1;treeMoving=1;newEdgeStyle={&quot;edgeStyle&quot;:&quot;entityRelationEdgeStyle&quot;,&quot;startArrow&quot;:&quot;none&quot;,&quot;endArrow&quot;:&quot;none&quot;,&quot;segment&quot;:10,&quot;curved&quot;:1};shadow=0;sketch=0;gradientColor=none;strokeColor=none;fillColor=#2F5B7C;" parent="1" vertex="1">
          <mxGeometry x="230" y="1200" width="360" height="40" as="geometry" />
        </mxCell>
        <mxCell id="em-1HlqMXCPZLSbGFmnV-1859" value="&lt;font color=&quot;#ffffff&quot;&gt;px4_pos_estimator&lt;/font&gt;" style="ellipse;whiteSpace=wrap;html=1;align=center;newEdgeStyle={&quot;edgeStyle&quot;:&quot;entityRelationEdgeStyle&quot;,&quot;startArrow&quot;:&quot;none&quot;,&quot;endArrow&quot;:&quot;none&quot;,&quot;segment&quot;:10,&quot;curved&quot;:1};treeFolding=1;treeMoving=1;strokeColor=none;sketch=0;shadow=0;fillColor=#EA6B66;" parent="1" vertex="1">
          <mxGeometry x="70" y="1120" width="125" height="40" as="geometry" />
        </mxCell>
        <mxCell id="em-1HlqMXCPZLSbGFmnV-1860" value="" style="edgeStyle=entityRelationEdgeStyle;startArrow=none;endArrow=none;segment=10;curved=1;entryX=0.978;entryY=0.354;entryDx=0;entryDy=0;entryPerimeter=0;exitX=0;exitY=0.5;exitDx=0;exitDy=0;strokeColor=#2F5B7C;" parent="1" source="em-1HlqMXCPZLSbGFmnV-1852" target="em-1HlqMXCPZLSbGFmnV-1859" edge="1">
          <mxGeometry relative="1" as="geometry">
            <mxPoint x="400" y="1100" as="sourcePoint" />
            <mxPoint x="344.92999999999984" y="1140" as="targetPoint" />
          </mxGeometry>
        </mxCell>
        <mxCell id="em-1HlqMXCPZLSbGFmnV-1861" value="" style="edgeStyle=entityRelationEdgeStyle;startArrow=none;endArrow=none;segment=10;curved=1;entryX=0;entryY=0.5;entryDx=0;entryDy=0;exitX=0.97;exitY=0.663;exitDx=0;exitDy=0;exitPerimeter=0;strokeColor=#2F5B7C;" parent="1" source="em-1HlqMXCPZLSbGFmnV-1859" target="em-1HlqMXCPZLSbGFmnV-1856" edge="1">
          <mxGeometry relative="1" as="geometry">
            <mxPoint x="230" y="1059.9999999999998" as="sourcePoint" />
            <mxPoint x="202.25" y="1144.16" as="targetPoint" />
          </mxGeometry>
        </mxCell>
        <mxCell id="em-1HlqMXCPZLSbGFmnV-1875" style="edgeStyle=orthogonalEdgeStyle;orthogonalLoop=1;jettySize=auto;html=1;startArrow=none;startFill=0;endArrow=none;endFill=0;strokeColor=#12AAB5;curved=1;" parent="1" source="em-1HlqMXCPZLSbGFmnV-1866" target="em-1HlqMXCPZLSbGFmnV-1874" edge="1">
          <mxGeometry relative="1" as="geometry" />
        </mxCell>
        <mxCell id="em-1HlqMXCPZLSbGFmnV-1877" style="edgeStyle=orthogonalEdgeStyle;curved=1;orthogonalLoop=1;jettySize=auto;html=1;startArrow=none;startFill=0;endArrow=none;endFill=0;strokeColor=#12AAB5;" parent="1" source="em-1HlqMXCPZLSbGFmnV-1866" target="em-1HlqMXCPZLSbGFmnV-1876" edge="1">
          <mxGeometry relative="1" as="geometry" />
        </mxCell>
        <mxCell id="em-1HlqMXCPZLSbGFmnV-1866" value="&lt;span style=&quot;color: rgb(255 , 255 , 255)&quot;&gt;state_sub&lt;br&gt;extened_&lt;/span&gt;&lt;span style=&quot;color: rgb(255 , 255 , 255)&quot;&gt;state_sub&lt;/span&gt;&lt;br style=&quot;color: rgb(255 , 255 , 255)&quot;&gt;&lt;span style=&quot;color: rgb(255 , 255 , 255)&quot;&gt;订阅&lt;/span&gt;&lt;font color=&quot;#ffffff&quot;&gt;无人机当前状态&lt;/font&gt;" style="whiteSpace=wrap;html=1;rounded=1;arcSize=50;align=center;verticalAlign=middle;strokeWidth=1;autosize=1;spacing=4;treeFolding=1;treeMoving=1;newEdgeStyle={&quot;edgeStyle&quot;:&quot;entityRelationEdgeStyle&quot;,&quot;startArrow&quot;:&quot;none&quot;,&quot;endArrow&quot;:&quot;none&quot;,&quot;segment&quot;:10,&quot;curved&quot;:1};shadow=0;sketch=0;fillColor=#12AAB5;gradientColor=none;strokeColor=none;" parent="1" vertex="1">
          <mxGeometry x="1577.7600000000002" y="1075" width="150" height="60" as="geometry" />
        </mxCell>
        <mxCell id="em-1HlqMXCPZLSbGFmnV-1867" value="" style="edgeStyle=entityRelationEdgeStyle;startArrow=blockThin;endArrow=none;segment=10;curved=1;startFill=1;strokeColor=#12AAB5;exitX=1;exitY=0.168;exitDx=0;exitDy=0;exitPerimeter=0;" parent="1" source="em-1HlqMXCPZLSbGFmnV-1895" target="em-1HlqMXCPZLSbGFmnV-1866" edge="1">
          <mxGeometry relative="1" as="geometry">
            <mxPoint x="1528.88" y="1182" as="sourcePoint" />
          </mxGeometry>
        </mxCell>
        <mxCell id="em-1HlqMXCPZLSbGFmnV-1874" value="&lt;font color=&quot;#ffffff&quot;&gt;&amp;lt;mavros_msgs::State&amp;gt;(&quot;/mavros/state&quot;, 10, &amp;amp;state_from_mavros::state_cb,this)&lt;/font&gt;" style="whiteSpace=wrap;html=1;rounded=1;arcSize=50;align=center;verticalAlign=middle;strokeWidth=1;autosize=1;spacing=4;treeFolding=1;treeMoving=1;newEdgeStyle={&quot;edgeStyle&quot;:&quot;entityRelationEdgeStyle&quot;,&quot;startArrow&quot;:&quot;none&quot;,&quot;endArrow&quot;:&quot;none&quot;,&quot;segment&quot;:10,&quot;curved&quot;:1};shadow=0;sketch=0;gradientColor=none;strokeColor=none;fillColor=#61C6CE;" parent="1" vertex="1">
          <mxGeometry x="1778.88" y="1075" width="460" height="30" as="geometry" />
        </mxCell>
        <mxCell id="em-1HlqMXCPZLSbGFmnV-1876" value="&lt;font color=&quot;#ffffff&quot;&gt;&amp;lt;mavros_msgs::ExtendedState&amp;gt;(&quot;/mavros/extended_state&quot;, 10, &amp;amp;state_from_mavros::extended_state_cb,this)&lt;/font&gt;" style="whiteSpace=wrap;html=1;rounded=1;arcSize=50;align=center;verticalAlign=middle;strokeWidth=1;autosize=1;spacing=4;treeFolding=1;treeMoving=1;newEdgeStyle={&quot;edgeStyle&quot;:&quot;entityRelationEdgeStyle&quot;,&quot;startArrow&quot;:&quot;none&quot;,&quot;endArrow&quot;:&quot;none&quot;,&quot;segment&quot;:10,&quot;curved&quot;:1};shadow=0;sketch=0;gradientColor=none;strokeColor=none;fillColor=#61C6CE;" parent="1" vertex="1">
          <mxGeometry x="1778.88" y="1105" width="630" height="30" as="geometry" />
        </mxCell>
        <mxCell id="em-1HlqMXCPZLSbGFmnV-1881" style="edgeStyle=orthogonalEdgeStyle;curved=1;orthogonalLoop=1;jettySize=auto;html=1;startArrow=none;startFill=0;endArrow=none;endFill=0;strokeColor=#12AAB5;" parent="1" source="em-1HlqMXCPZLSbGFmnV-1878" target="em-1HlqMXCPZLSbGFmnV-1880" edge="1">
          <mxGeometry relative="1" as="geometry" />
        </mxCell>
        <mxCell id="em-1HlqMXCPZLSbGFmnV-1878" value="&lt;span style=&quot;color: rgb(255 , 255 , 255)&quot;&gt;position_sub&lt;/span&gt;&lt;br style=&quot;color: rgb(255 , 255 , 255)&quot;&gt;&lt;span style=&quot;color: rgb(255 , 255 , 255)&quot;&gt;订阅&lt;/span&gt;&lt;font color=&quot;#ffffff&quot;&gt;无人机当前位置&lt;/font&gt;" style="whiteSpace=wrap;html=1;rounded=1;arcSize=50;align=center;verticalAlign=middle;strokeWidth=1;autosize=1;spacing=4;treeFolding=1;treeMoving=1;newEdgeStyle={&quot;edgeStyle&quot;:&quot;entityRelationEdgeStyle&quot;,&quot;startArrow&quot;:&quot;none&quot;,&quot;endArrow&quot;:&quot;none&quot;,&quot;segment&quot;:10,&quot;curved&quot;:1};shadow=0;sketch=0;fillColor=#12AAB5;gradientColor=none;strokeColor=none;" parent="1" vertex="1">
          <mxGeometry x="1577.7600000000002" y="1145" width="150" height="40" as="geometry" />
        </mxCell>
        <mxCell id="em-1HlqMXCPZLSbGFmnV-1879" value="" style="edgeStyle=entityRelationEdgeStyle;startArrow=blockThin;endArrow=none;segment=10;curved=1;startFill=1;strokeColor=#12AAB5;exitX=1;exitY=0.321;exitDx=0;exitDy=0;exitPerimeter=0;" parent="1" source="em-1HlqMXCPZLSbGFmnV-1895" target="em-1HlqMXCPZLSbGFmnV-1878" edge="1">
          <mxGeometry relative="1" as="geometry">
            <mxPoint x="1518.88" y="1189" as="sourcePoint" />
          </mxGeometry>
        </mxCell>
        <mxCell id="em-1HlqMXCPZLSbGFmnV-1880" value="&lt;font color=&quot;#ffffff&quot;&gt;&amp;lt;geometry_msgs::PoseStamped&amp;gt;(&quot;/mavros/local_position/pose&quot;, 10, &amp;amp;state_mavros::pos_cb,this)&lt;/font&gt;" style="whiteSpace=wrap;html=1;rounded=1;arcSize=50;align=center;verticalAlign=middle;strokeWidth=1;autosize=1;spacing=4;treeFolding=1;treeMoving=1;newEdgeStyle={&quot;edgeStyle&quot;:&quot;entityRelationEdgeStyle&quot;,&quot;startArrow&quot;:&quot;none&quot;,&quot;endArrow&quot;:&quot;none&quot;,&quot;segment&quot;:10,&quot;curved&quot;:1};shadow=0;sketch=0;gradientColor=none;strokeColor=none;fillColor=#61C6CE;" parent="1" vertex="1">
          <mxGeometry x="1778.88" y="1150" width="560" height="30" as="geometry" />
        </mxCell>
        <mxCell id="em-1HlqMXCPZLSbGFmnV-1890" style="edgeStyle=orthogonalEdgeStyle;rounded=1;orthogonalLoop=1;jettySize=auto;html=1;startArrow=none;startFill=0;endArrow=none;endFill=0;strokeColor=#12AAB5;" parent="1" source="em-1HlqMXCPZLSbGFmnV-1886" target="em-1HlqMXCPZLSbGFmnV-1889" edge="1">
          <mxGeometry relative="1" as="geometry" />
        </mxCell>
        <mxCell id="em-1HlqMXCPZLSbGFmnV-1886" value="&lt;span style=&quot;color: rgb(255 , 255 , 255)&quot;&gt;velocity_sub&lt;/span&gt;&lt;br style=&quot;color: rgb(255 , 255 , 255)&quot;&gt;&lt;span style=&quot;color: rgb(255 , 255 , 255)&quot;&gt;订阅&lt;/span&gt;&lt;font color=&quot;#ffffff&quot;&gt;无人机当前速度&lt;/font&gt;" style="whiteSpace=wrap;html=1;rounded=1;arcSize=50;align=center;verticalAlign=middle;strokeWidth=1;autosize=1;spacing=4;treeFolding=1;treeMoving=1;newEdgeStyle={&quot;edgeStyle&quot;:&quot;entityRelationEdgeStyle&quot;,&quot;startArrow&quot;:&quot;none&quot;,&quot;endArrow&quot;:&quot;none&quot;,&quot;segment&quot;:10,&quot;curved&quot;:1};shadow=0;sketch=0;fillColor=#12AAB5;gradientColor=none;strokeColor=none;" parent="1" vertex="1">
          <mxGeometry x="1582.7600000000002" y="1201" width="150" height="40" as="geometry" />
        </mxCell>
        <mxCell id="em-1HlqMXCPZLSbGFmnV-1887" value="" style="edgeStyle=entityRelationEdgeStyle;startArrow=blockThin;endArrow=none;segment=10;curved=1;exitX=1.003;exitY=0.653;exitDx=0;exitDy=0;exitPerimeter=0;startFill=1;strokeColor=#12AAB5;" parent="1" source="em-1HlqMXCPZLSbGFmnV-1895" target="em-1HlqMXCPZLSbGFmnV-1886" edge="1">
          <mxGeometry relative="1" as="geometry">
            <mxPoint x="1529.3000000000002" y="1201.3600000000001" as="sourcePoint" />
          </mxGeometry>
        </mxCell>
        <mxCell id="em-1HlqMXCPZLSbGFmnV-1889" value="&lt;font color=&quot;#ffffff&quot;&gt;&amp;lt;geometry_msgs::TwistStamped&amp;gt;(&quot;/mavros/local_position/velocity_local&quot;, 10, &amp;amp;state_from_mavros::vel_cb,this)&lt;/font&gt;" style="whiteSpace=wrap;html=1;rounded=1;arcSize=50;align=center;verticalAlign=middle;strokeWidth=1;autosize=1;spacing=4;treeFolding=1;treeMoving=1;newEdgeStyle={&quot;edgeStyle&quot;:&quot;entityRelationEdgeStyle&quot;,&quot;startArrow&quot;:&quot;none&quot;,&quot;endArrow&quot;:&quot;none&quot;,&quot;segment&quot;:10,&quot;curved&quot;:1};shadow=0;sketch=0;gradientColor=none;strokeColor=none;fillColor=#61C6CE;" parent="1" vertex="1">
          <mxGeometry x="1778.88" y="1205" width="630" height="30" as="geometry" />
        </mxCell>
        <mxCell id="em-1HlqMXCPZLSbGFmnV-1894" style="edgeStyle=orthogonalEdgeStyle;rounded=1;orthogonalLoop=1;jettySize=auto;html=1;startArrow=none;startFill=0;endArrow=none;endFill=0;strokeColor=#12AAB5;" parent="1" source="em-1HlqMXCPZLSbGFmnV-1891" target="em-1HlqMXCPZLSbGFmnV-1893" edge="1">
          <mxGeometry relative="1" as="geometry" />
        </mxCell>
        <mxCell id="em-1HlqMXCPZLSbGFmnV-1891" value="&lt;span style=&quot;color: rgb(255 , 255 , 255)&quot;&gt;attitude_sub&lt;/span&gt;&lt;br style=&quot;color: rgb(255 , 255 , 255)&quot;&gt;&lt;span style=&quot;color: rgb(255 , 255 , 255)&quot;&gt;订阅&lt;/span&gt;&lt;font color=&quot;#ffffff&quot;&gt;无人机当前欧拉角&lt;/font&gt;" style="whiteSpace=wrap;html=1;rounded=1;arcSize=50;align=center;verticalAlign=middle;strokeWidth=1;autosize=1;spacing=4;treeFolding=1;treeMoving=1;newEdgeStyle={&quot;edgeStyle&quot;:&quot;entityRelationEdgeStyle&quot;,&quot;startArrow&quot;:&quot;none&quot;,&quot;endArrow&quot;:&quot;none&quot;,&quot;segment&quot;:10,&quot;curved&quot;:1};shadow=0;sketch=0;fillColor=#12AAB5;gradientColor=none;strokeColor=none;" parent="1" vertex="1">
          <mxGeometry x="1582.7600000000002" y="1250" width="160" height="40" as="geometry" />
        </mxCell>
        <mxCell id="em-1HlqMXCPZLSbGFmnV-1892" value="" style="edgeStyle=entityRelationEdgeStyle;startArrow=blockThin;endArrow=none;segment=10;curved=1;exitX=1.005;exitY=0.835;exitDx=0;exitDy=0;exitPerimeter=0;startFill=1;strokeColor=#12AAB5;" parent="1" source="em-1HlqMXCPZLSbGFmnV-1895" target="em-1HlqMXCPZLSbGFmnV-1891" edge="1">
          <mxGeometry relative="1" as="geometry">
            <mxPoint x="1529.44" y="1207.5700000000002" as="sourcePoint" />
          </mxGeometry>
        </mxCell>
        <mxCell id="em-1HlqMXCPZLSbGFmnV-1893" value="&lt;font color=&quot;#ffffff&quot;&gt;&amp;lt;sensor_msgs::Imu&amp;gt;(&quot;/mavros/imu/data&quot;, 10, &amp;amp;state_from_mavros::att_cb,this)&lt;/font&gt;" style="whiteSpace=wrap;html=1;rounded=1;arcSize=50;align=center;verticalAlign=middle;strokeWidth=1;autosize=1;spacing=4;treeFolding=1;treeMoving=1;newEdgeStyle={&quot;edgeStyle&quot;:&quot;entityRelationEdgeStyle&quot;,&quot;startArrow&quot;:&quot;none&quot;,&quot;endArrow&quot;:&quot;none&quot;,&quot;segment&quot;:10,&quot;curved&quot;:1};shadow=0;sketch=0;gradientColor=none;strokeColor=none;fillColor=#61C6CE;" parent="1" vertex="1">
          <mxGeometry x="1780" y="1255" width="460" height="30" as="geometry" />
        </mxCell>
        <mxCell id="em-1HlqMXCPZLSbGFmnV-1901" style="edgeStyle=orthogonalEdgeStyle;curved=1;orthogonalLoop=1;jettySize=auto;html=1;startArrow=none;startFill=0;endArrow=none;endFill=0;strokeColor=#2F5B7C;" parent="1" source="em-1HlqMXCPZLSbGFmnV-1895" target="em-1HlqMXCPZLSbGFmnV-1900" edge="1">
          <mxGeometry relative="1" as="geometry" />
        </mxCell>
        <mxCell id="em-1HlqMXCPZLSbGFmnV-1895" value="&lt;font color=&quot;#ffffff&quot;&gt;state_from_mavros.h&lt;/font&gt;" style="whiteSpace=wrap;html=1;rounded=0;arcSize=50;align=center;verticalAlign=middle;strokeWidth=1;autosize=1;spacing=4;treeFolding=1;treeMoving=1;newEdgeStyle={&quot;edgeStyle&quot;:&quot;entityRelationEdgeStyle&quot;,&quot;startArrow&quot;:&quot;none&quot;,&quot;endArrow&quot;:&quot;none&quot;,&quot;segment&quot;:10,&quot;curved&quot;:1};shadow=0;sketch=0;gradientColor=none;strokeColor=none;fillColor=#97D077;" parent="1" vertex="1">
          <mxGeometry x="1355" y="1173" width="150" height="30" as="geometry" />
        </mxCell>
        <mxCell id="em-1HlqMXCPZLSbGFmnV-1903" style="edgeStyle=orthogonalEdgeStyle;curved=1;orthogonalLoop=1;jettySize=auto;html=1;startArrow=none;startFill=0;endArrow=none;endFill=0;strokeColor=#A680B8;" parent="1" source="em-1HlqMXCPZLSbGFmnV-1900" target="em-1HlqMXCPZLSbGFmnV-1902" edge="1">
          <mxGeometry relative="1" as="geometry" />
        </mxCell>
        <mxCell id="em-1HlqMXCPZLSbGFmnV-1900" value="&lt;font color=&quot;#ffffff&quot;&gt;_DroneState&lt;/font&gt;" style="whiteSpace=wrap;html=1;rounded=0;arcSize=50;align=center;verticalAlign=middle;strokeWidth=1;autosize=1;spacing=4;treeFolding=1;treeMoving=1;newEdgeStyle={&quot;edgeStyle&quot;:&quot;entityRelationEdgeStyle&quot;,&quot;startArrow&quot;:&quot;none&quot;,&quot;endArrow&quot;:&quot;none&quot;,&quot;segment&quot;:10,&quot;curved&quot;:1};shadow=0;sketch=0;gradientColor=none;strokeColor=none;fillColor=#2F5B7C;" parent="1" vertex="1">
          <mxGeometry x="1375" y="1235" width="110" height="30" as="geometry" />
        </mxCell>
        <mxCell id="em-1HlqMXCPZLSbGFmnV-1902" value="&lt;div style=&quot;text-align: center&quot;&gt;&lt;span style=&quot;color: rgb(255 , 255 , 255)&quot;&gt;DroneState&lt;/span&gt;&lt;/div&gt;&lt;font color=&quot;#ffffff&quot;&gt;&lt;span style=&quot;font-size: 12px&quot;&gt;std_msgs/Header header&lt;/span&gt;&lt;br&gt;&lt;span style=&quot;font-size: 12px&quot;&gt;bool connected&lt;/span&gt;&lt;br&gt;&lt;span style=&quot;font-size: 12px&quot;&gt;bool armed&lt;/span&gt;&lt;br&gt;&lt;span style=&quot;font-size: 12px&quot;&gt;bool landed&lt;/span&gt;&lt;br&gt;&lt;span style=&quot;font-size: 12px&quot;&gt;string mode&lt;/span&gt;&lt;br&gt;&lt;span style=&quot;font-size: 12px&quot;&gt;float32 time_from_start&lt;/span&gt;&lt;br&gt;&lt;span style=&quot;font-size: 12px&quot;&gt;float32[3] position&lt;/span&gt;&lt;br&gt;&lt;span style=&quot;font-size: 12px&quot;&gt;float32 rel_alt&lt;/span&gt;&lt;br&gt;&lt;span style=&quot;font-size: 12px&quot;&gt;float32[3] velocity&lt;/span&gt;&lt;br&gt;&lt;span style=&quot;font-size: 12px&quot;&gt;float32[3] attitude&lt;/span&gt;&lt;br&gt;&lt;span style=&quot;font-size: 12px&quot;&gt;geometry_msgs/Quaternion qttitude_q&lt;/span&gt;&lt;br&gt;&lt;span style=&quot;font-size: 12px&quot;&gt;float32[3] attitude_rate&lt;/span&gt;&lt;br&gt;&lt;/font&gt;" style="whiteSpace=wrap;html=1;rounded=0;arcSize=50;align=left;verticalAlign=bottom;strokeWidth=1;autosize=1;spacing=4;treeFolding=1;treeMoving=1;newEdgeStyle={&quot;edgeStyle&quot;:&quot;entityRelationEdgeStyle&quot;,&quot;startArrow&quot;:&quot;none&quot;,&quot;endArrow&quot;:&quot;none&quot;,&quot;segment&quot;:10,&quot;curved&quot;:1};shadow=0;sketch=0;gradientColor=none;strokeColor=none;fillColor=#A680B8;" parent="1" vertex="1">
          <mxGeometry x="1320" y="1305.4" width="220" height="190" as="geometry" />
        </mxCell>
        <mxCell id="em-1HlqMXCPZLSbGFmnV-1912" style="edgeStyle=orthogonalEdgeStyle;curved=1;orthogonalLoop=1;jettySize=auto;html=1;exitX=1;exitY=0.25;exitDx=0;exitDy=0;entryX=0;entryY=0.5;entryDx=0;entryDy=0;startArrow=none;startFill=0;endArrow=none;endFill=0;dashed=1;strokeColor=#97D077;" parent="1" source="em-1HlqMXCPZLSbGFmnV-1910" target="em-1HlqMXCPZLSbGFmnV-1895" edge="1">
          <mxGeometry relative="1" as="geometry">
            <Array as="points">
              <mxPoint x="485" y="1340" />
              <mxPoint x="1355" y="1340" />
            </Array>
          </mxGeometry>
        </mxCell>
        <mxCell id="em-1HlqMXCPZLSbGFmnV-1910" value="&lt;font color=&quot;#ffffff&quot;&gt;_state_from_mavros&lt;/font&gt;" style="whiteSpace=wrap;html=1;rounded=0;arcSize=50;align=center;verticalAlign=middle;strokeWidth=1;autosize=1;spacing=4;treeFolding=1;treeMoving=1;newEdgeStyle={&quot;edgeStyle&quot;:&quot;entityRelationEdgeStyle&quot;,&quot;startArrow&quot;:&quot;none&quot;,&quot;endArrow&quot;:&quot;none&quot;,&quot;segment&quot;:10,&quot;curved&quot;:1};shadow=0;sketch=0;gradientColor=none;strokeColor=none;fillColor=#2F5B7C;" parent="1" vertex="1">
          <mxGeometry x="335" y="1280.4" width="150" height="30" as="geometry" />
        </mxCell>
        <mxCell id="em-1HlqMXCPZLSbGFmnV-1947" style="edgeStyle=orthogonalEdgeStyle;curved=1;orthogonalLoop=1;jettySize=auto;html=1;exitX=1;exitY=0.5;exitDx=0;exitDy=0;entryX=0;entryY=0.5;entryDx=0;entryDy=0;startArrow=none;startFill=0;endArrow=none;endFill=0;strokeColor=#2F5B7C;" parent="1" source="em-1HlqMXCPZLSbGFmnV-1913" target="em-1HlqMXCPZLSbGFmnV-1946" edge="1">
          <mxGeometry relative="1" as="geometry" />
        </mxCell>
        <mxCell id="em-1HlqMXCPZLSbGFmnV-1913" value="&lt;font color=&quot;#ffffff&quot;&gt;px4_pos_controller&lt;/font&gt;" style="ellipse;whiteSpace=wrap;html=1;align=center;newEdgeStyle={&quot;edgeStyle&quot;:&quot;entityRelationEdgeStyle&quot;,&quot;startArrow&quot;:&quot;none&quot;,&quot;endArrow&quot;:&quot;none&quot;,&quot;segment&quot;:10,&quot;curved&quot;:1};treeFolding=1;treeMoving=1;strokeColor=none;sketch=0;shadow=0;fillColor=#EA6B66;" parent="1" vertex="1">
          <mxGeometry x="127.5" y="4095" width="125" height="40" as="geometry" />
        </mxCell>
        <mxCell id="em-1HlqMXCPZLSbGFmnV-1919" style="edgeStyle=orthogonalEdgeStyle;curved=1;orthogonalLoop=1;jettySize=auto;html=1;startArrow=none;startFill=0;endArrow=none;endFill=0;strokeColor=#12AAB5;" parent="1" source="em-1HlqMXCPZLSbGFmnV-1914" target="em-1HlqMXCPZLSbGFmnV-1918" edge="1">
          <mxGeometry relative="1" as="geometry" />
        </mxCell>
        <mxCell id="em-1HlqMXCPZLSbGFmnV-1914" value="&lt;font color=&quot;#ffffff&quot;&gt;&lt;span style=&quot;font-size: 12px&quot;&gt;Command_sub 订阅任务&lt;br&gt;模块生成的控制指令&lt;/span&gt;&lt;/font&gt;" style="whiteSpace=wrap;html=1;rounded=1;arcSize=50;align=center;verticalAlign=middle;strokeWidth=1;autosize=1;spacing=4;treeFolding=1;treeMoving=1;newEdgeStyle={&quot;edgeStyle&quot;:&quot;entityRelationEdgeStyle&quot;,&quot;startArrow&quot;:&quot;none&quot;,&quot;endArrow&quot;:&quot;none&quot;,&quot;segment&quot;:10,&quot;curved&quot;:1};shadow=0;sketch=0;fillColor=#12AAB5;gradientColor=none;strokeColor=none;" parent="1" vertex="1">
          <mxGeometry x="467.5" y="3880" width="170" height="40" as="geometry" />
        </mxCell>
        <mxCell id="em-1HlqMXCPZLSbGFmnV-1915" value="" style="edgeStyle=entityRelationEdgeStyle;startArrow=blockThin;endArrow=none;segment=10;curved=1;strokeColor=#12AAB5;exitX=1;exitY=0.091;exitDx=0;exitDy=0;startFill=1;exitPerimeter=0;" parent="1" source="em-1HlqMXCPZLSbGFmnV-1916" target="em-1HlqMXCPZLSbGFmnV-1914" edge="1">
          <mxGeometry relative="1" as="geometry">
            <mxPoint x="287.5000000000002" y="3905" as="sourcePoint" />
          </mxGeometry>
        </mxCell>
        <mxCell id="em-1HlqMXCPZLSbGFmnV-1916" value="&lt;font color=&quot;#ffffff&quot;&gt;sub and pub&lt;/font&gt;" style="whiteSpace=wrap;html=1;rounded=0;arcSize=50;align=center;verticalAlign=middle;strokeWidth=1;autosize=1;spacing=4;treeFolding=1;treeMoving=1;newEdgeStyle={&quot;edgeStyle&quot;:&quot;entityRelationEdgeStyle&quot;,&quot;startArrow&quot;:&quot;none&quot;,&quot;endArrow&quot;:&quot;none&quot;,&quot;segment&quot;:10,&quot;curved&quot;:1};shadow=0;sketch=0;gradientColor=none;strokeColor=none;fillColor=#2F5B7C;" parent="1" vertex="1">
          <mxGeometry x="297.5" y="4000" width="110" height="30" as="geometry" />
        </mxCell>
        <mxCell id="em-1HlqMXCPZLSbGFmnV-1917" value="" style="edgeStyle=entityRelationEdgeStyle;startArrow=none;endArrow=none;segment=10;curved=1;entryX=0;entryY=0.5;entryDx=0;entryDy=0;strokeColor=#2F5B7C;" parent="1" source="em-1HlqMXCPZLSbGFmnV-1913" target="em-1HlqMXCPZLSbGFmnV-1916" edge="1">
          <mxGeometry relative="1" as="geometry">
            <mxPoint x="167.5" y="3785" as="sourcePoint" />
            <mxPoint x="178.5" y="3782.6400000000003" as="targetPoint" />
          </mxGeometry>
        </mxCell>
        <mxCell id="em-1HlqMXCPZLSbGFmnV-1918" value="&lt;font color=&quot;#ffffff&quot;&gt;&lt;span style=&quot;font-size: 12px&quot;&gt;&amp;lt;prometheus_msgs::ControlCommand&amp;gt;(&quot;/prometheus/control_command&quot;, 10, Command_cb)&lt;/span&gt;&lt;/font&gt;" style="whiteSpace=wrap;html=1;rounded=1;arcSize=50;align=center;verticalAlign=middle;strokeWidth=1;autosize=1;spacing=4;treeFolding=1;treeMoving=1;newEdgeStyle={&quot;edgeStyle&quot;:&quot;entityRelationEdgeStyle&quot;,&quot;startArrow&quot;:&quot;none&quot;,&quot;endArrow&quot;:&quot;none&quot;,&quot;segment&quot;:10,&quot;curved&quot;:1};shadow=0;sketch=0;gradientColor=none;strokeColor=none;fillColor=#61C6CE;" parent="1" vertex="1">
          <mxGeometry x="667.5" y="3885" width="540" height="30" as="geometry" />
        </mxCell>
        <mxCell id="em-1HlqMXCPZLSbGFmnV-1924" style="edgeStyle=orthogonalEdgeStyle;curved=1;orthogonalLoop=1;jettySize=auto;html=1;startArrow=none;startFill=0;endArrow=none;endFill=0;strokeColor=#12AAB5;" parent="1" source="em-1HlqMXCPZLSbGFmnV-1920" target="em-1HlqMXCPZLSbGFmnV-1923" edge="1">
          <mxGeometry relative="1" as="geometry" />
        </mxCell>
        <mxCell id="em-1HlqMXCPZLSbGFmnV-1920" value="&lt;font color=&quot;#ffffff&quot;&gt;&lt;span style=&quot;font-size: 12px&quot;&gt;station_command_sub 订阅&lt;br&gt;地面站发送的控制指令&lt;/span&gt;&lt;/font&gt;" style="whiteSpace=wrap;html=1;rounded=1;arcSize=50;align=center;verticalAlign=middle;strokeWidth=1;autosize=1;spacing=4;treeFolding=1;treeMoving=1;newEdgeStyle={&quot;edgeStyle&quot;:&quot;entityRelationEdgeStyle&quot;,&quot;startArrow&quot;:&quot;none&quot;,&quot;endArrow&quot;:&quot;none&quot;,&quot;segment&quot;:10,&quot;curved&quot;:1};shadow=0;sketch=0;fillColor=#12AAB5;gradientColor=none;strokeColor=none;" parent="1" vertex="1">
          <mxGeometry x="467.5" y="3930" width="190" height="40" as="geometry" />
        </mxCell>
        <mxCell id="em-1HlqMXCPZLSbGFmnV-1921" value="" style="edgeStyle=entityRelationEdgeStyle;startArrow=blockThin;endArrow=none;segment=10;curved=1;strokeColor=#12AAB5;startFill=1;exitX=1;exitY=0.336;exitDx=0;exitDy=0;exitPerimeter=0;" parent="1" source="em-1HlqMXCPZLSbGFmnV-1916" target="em-1HlqMXCPZLSbGFmnV-1920" edge="1">
          <mxGeometry relative="1" as="geometry">
            <mxPoint x="399.5" y="3940" as="sourcePoint" />
          </mxGeometry>
        </mxCell>
        <mxCell id="em-1HlqMXCPZLSbGFmnV-1923" value="&lt;font color=&quot;#ffffff&quot;&gt;&lt;span style=&quot;font-size: 12px&quot;&gt;&amp;lt;prometheus_msgs::ControlCommand&amp;gt;(&quot;/prometheus/control_command_station&quot;, 10, station_command_cb)&lt;/span&gt;&lt;/font&gt;" style="whiteSpace=wrap;html=1;rounded=1;arcSize=50;align=center;verticalAlign=middle;strokeWidth=1;autosize=1;spacing=4;treeFolding=1;treeMoving=1;newEdgeStyle={&quot;edgeStyle&quot;:&quot;entityRelationEdgeStyle&quot;,&quot;startArrow&quot;:&quot;none&quot;,&quot;endArrow&quot;:&quot;none&quot;,&quot;segment&quot;:10,&quot;curved&quot;:1};shadow=0;sketch=0;gradientColor=none;strokeColor=none;fillColor=#61C6CE;" parent="1" vertex="1">
          <mxGeometry x="667.5" y="3935" width="620" height="30" as="geometry" />
        </mxCell>
        <mxCell id="em-1HlqMXCPZLSbGFmnV-1928" style="edgeStyle=orthogonalEdgeStyle;curved=1;orthogonalLoop=1;jettySize=auto;html=1;startArrow=none;startFill=0;endArrow=none;endFill=0;strokeColor=#12AAB5;" parent="1" source="em-1HlqMXCPZLSbGFmnV-1925" target="em-1HlqMXCPZLSbGFmnV-1927" edge="1">
          <mxGeometry relative="1" as="geometry" />
        </mxCell>
        <mxCell id="em-1HlqMXCPZLSbGFmnV-1925" value="&lt;font color=&quot;#ffffff&quot;&gt;&lt;span style=&quot;font-size: 12px&quot;&gt;drone_state_sub&lt;br&gt;订阅无人机状态&lt;/span&gt;&lt;/font&gt;" style="whiteSpace=wrap;html=1;rounded=1;arcSize=50;align=center;verticalAlign=middle;strokeWidth=1;autosize=1;spacing=4;treeFolding=1;treeMoving=1;newEdgeStyle={&quot;edgeStyle&quot;:&quot;entityRelationEdgeStyle&quot;,&quot;startArrow&quot;:&quot;none&quot;,&quot;endArrow&quot;:&quot;none&quot;,&quot;segment&quot;:10,&quot;curved&quot;:1};shadow=0;sketch=0;fillColor=#12AAB5;gradientColor=none;strokeColor=none;" parent="1" vertex="1">
          <mxGeometry x="467.5" y="3980" width="130" height="40" as="geometry" />
        </mxCell>
        <mxCell id="em-1HlqMXCPZLSbGFmnV-1926" value="" style="edgeStyle=entityRelationEdgeStyle;startArrow=blockThin;endArrow=none;segment=10;curved=1;strokeColor=#12AAB5;startFill=1;exitX=1.001;exitY=0.607;exitDx=0;exitDy=0;exitPerimeter=0;" parent="1" source="em-1HlqMXCPZLSbGFmnV-1916" target="em-1HlqMXCPZLSbGFmnV-1925" edge="1">
          <mxGeometry relative="1" as="geometry">
            <mxPoint x="397.5" y="3990.08" as="sourcePoint" />
          </mxGeometry>
        </mxCell>
        <mxCell id="em-1HlqMXCPZLSbGFmnV-1927" value="&lt;font color=&quot;#ffffff&quot;&gt;&lt;span style=&quot;font-size: 12px&quot;&gt;&amp;lt;prometheus_msgs::DroneState&amp;gt;(&quot;/prometheus/drone_state&quot;, 10, drone_state_cb)&lt;/span&gt;&lt;/font&gt;" style="whiteSpace=wrap;html=1;rounded=1;arcSize=50;align=center;verticalAlign=middle;strokeWidth=1;autosize=1;spacing=4;treeFolding=1;treeMoving=1;newEdgeStyle={&quot;edgeStyle&quot;:&quot;entityRelationEdgeStyle&quot;,&quot;startArrow&quot;:&quot;none&quot;,&quot;endArrow&quot;:&quot;none&quot;,&quot;segment&quot;:10,&quot;curved&quot;:1};shadow=0;sketch=0;gradientColor=none;strokeColor=none;fillColor=#61C6CE;" parent="1" vertex="1">
          <mxGeometry x="667.5" y="3985" width="480" height="30" as="geometry" />
        </mxCell>
        <mxCell id="em-1HlqMXCPZLSbGFmnV-1934" style="edgeStyle=orthogonalEdgeStyle;curved=1;orthogonalLoop=1;jettySize=auto;html=1;startArrow=none;startFill=0;endArrow=none;endFill=0;strokeColor=#1699D3;" parent="1" source="em-1HlqMXCPZLSbGFmnV-1931" target="em-1HlqMXCPZLSbGFmnV-1933" edge="1">
          <mxGeometry relative="1" as="geometry" />
        </mxCell>
        <mxCell id="em-1HlqMXCPZLSbGFmnV-1931" value="&lt;font color=&quot;#ffffff&quot;&gt;&lt;span style=&quot;font-size: 12px&quot;&gt;att_ref_pub 发布位置&lt;br&gt;控制器的输出量:期望姿态&lt;/span&gt;&lt;/font&gt;" style="whiteSpace=wrap;html=1;rounded=1;arcSize=50;align=center;verticalAlign=middle;strokeWidth=1;autosize=1;spacing=4;treeFolding=1;treeMoving=1;newEdgeStyle={&quot;edgeStyle&quot;:&quot;entityRelationEdgeStyle&quot;,&quot;startArrow&quot;:&quot;none&quot;,&quot;endArrow&quot;:&quot;none&quot;,&quot;segment&quot;:10,&quot;curved&quot;:1};shadow=0;sketch=0;gradientColor=none;strokeColor=none;fillColor=#1699D3;" parent="1" vertex="1">
          <mxGeometry x="467.5" y="4030" width="180" height="40" as="geometry" />
        </mxCell>
        <mxCell id="em-1HlqMXCPZLSbGFmnV-1932" value="" style="edgeStyle=entityRelationEdgeStyle;startArrow=none;endArrow=blockThin;segment=10;curved=1;exitX=0.996;exitY=0.885;exitDx=0;exitDy=0;exitPerimeter=0;endFill=1;strokeColor=#1699D3;" parent="1" source="em-1HlqMXCPZLSbGFmnV-1916" target="em-1HlqMXCPZLSbGFmnV-1931" edge="1">
          <mxGeometry relative="1" as="geometry">
            <mxPoint x="388.2600000000001" y="4084.08" as="sourcePoint" />
          </mxGeometry>
        </mxCell>
        <mxCell id="em-1HlqMXCPZLSbGFmnV-1933" value="&lt;font color=&quot;#ffffff&quot;&gt;&lt;span style=&quot;font-size: 12px&quot;&gt;&amp;lt;prometheus_msgs::AttitudeReference&amp;gt;(&quot;/prometheus/control/attitude_reference&quot;, 10)&lt;/span&gt;&lt;/font&gt;" style="whiteSpace=wrap;html=1;rounded=1;arcSize=50;align=center;verticalAlign=middle;strokeWidth=1;autosize=1;spacing=4;treeFolding=1;treeMoving=1;newEdgeStyle={&quot;edgeStyle&quot;:&quot;entityRelationEdgeStyle&quot;,&quot;startArrow&quot;:&quot;none&quot;,&quot;endArrow&quot;:&quot;none&quot;,&quot;segment&quot;:10,&quot;curved&quot;:1};shadow=0;sketch=0;gradientColor=none;strokeColor=none;fillColor=#64BBE2;" parent="1" vertex="1">
          <mxGeometry x="667.5" y="4035" width="500" height="30" as="geometry" />
        </mxCell>
        <mxCell id="em-1HlqMXCPZLSbGFmnV-1938" style="edgeStyle=orthogonalEdgeStyle;curved=1;orthogonalLoop=1;jettySize=auto;html=1;startArrow=none;startFill=0;endArrow=none;endFill=0;strokeColor=#1699D3;" parent="1" source="em-1HlqMXCPZLSbGFmnV-1935" target="em-1HlqMXCPZLSbGFmnV-1937" edge="1">
          <mxGeometry relative="1" as="geometry" />
        </mxCell>
        <mxCell id="em-1HlqMXCPZLSbGFmnV-1935" value="&lt;font color=&quot;#ffffff&quot;&gt;&lt;span style=&quot;font-size: 12px&quot;&gt;rivz_ref_pose_pub&lt;br&gt;发布参考位姿 RVIZ显示&lt;/span&gt;&lt;/font&gt;" style="whiteSpace=wrap;html=1;rounded=1;arcSize=50;align=center;verticalAlign=middle;strokeWidth=1;autosize=1;spacing=4;treeFolding=1;treeMoving=1;newEdgeStyle={&quot;edgeStyle&quot;:&quot;entityRelationEdgeStyle&quot;,&quot;startArrow&quot;:&quot;none&quot;,&quot;endArrow&quot;:&quot;none&quot;,&quot;segment&quot;:10,&quot;curved&quot;:1};shadow=0;sketch=0;gradientColor=none;strokeColor=none;fillColor=#1699D3;" parent="1" vertex="1">
          <mxGeometry x="467.5" y="4080" width="170" height="40" as="geometry" />
        </mxCell>
        <mxCell id="em-1HlqMXCPZLSbGFmnV-1936" value="" style="edgeStyle=entityRelationEdgeStyle;startArrow=none;endArrow=blockThin;segment=10;curved=1;exitX=1;exitY=1;exitDx=0;exitDy=0;endFill=1;strokeColor=#1699D3;" parent="1" source="em-1HlqMXCPZLSbGFmnV-1916" target="em-1HlqMXCPZLSbGFmnV-1935" edge="1">
          <mxGeometry relative="1" as="geometry">
            <mxPoint x="397.49999999999994" y="4030" as="sourcePoint" />
          </mxGeometry>
        </mxCell>
        <mxCell id="em-1HlqMXCPZLSbGFmnV-1937" value="&lt;font color=&quot;#ffffff&quot;&gt;&lt;span style=&quot;font-size: 12px&quot;&gt;&amp;lt;geometry_msgs::PoseStamped&amp;gt;(&quot;/prometheus/control/ref_pose_rviz&quot;, 10)&lt;/span&gt;&lt;/font&gt;" style="whiteSpace=wrap;html=1;rounded=1;arcSize=50;align=center;verticalAlign=middle;strokeWidth=1;autosize=1;spacing=4;treeFolding=1;treeMoving=1;newEdgeStyle={&quot;edgeStyle&quot;:&quot;entityRelationEdgeStyle&quot;,&quot;startArrow&quot;:&quot;none&quot;,&quot;endArrow&quot;:&quot;none&quot;,&quot;segment&quot;:10,&quot;curved&quot;:1};shadow=0;sketch=0;gradientColor=none;strokeColor=none;fillColor=#64BBE2;" parent="1" vertex="1">
          <mxGeometry x="667.5" y="4085" width="440" height="30" as="geometry" />
        </mxCell>
        <mxCell id="em-1HlqMXCPZLSbGFmnV-1942" style="edgeStyle=orthogonalEdgeStyle;curved=1;orthogonalLoop=1;jettySize=auto;html=1;startArrow=none;startFill=0;endArrow=none;endFill=0;strokeColor=#1699D3;" parent="1" source="em-1HlqMXCPZLSbGFmnV-1939" target="em-1HlqMXCPZLSbGFmnV-1941" edge="1">
          <mxGeometry relative="1" as="geometry" />
        </mxCell>
        <mxCell id="em-1HlqMXCPZLSbGFmnV-1939" value="&lt;font color=&quot;#ffffff&quot;&gt;&lt;span style=&quot;font-size: 12px&quot;&gt;message_pub 发布用于&lt;br&gt;地面站显示的提示消息&lt;/span&gt;&lt;/font&gt;" style="whiteSpace=wrap;html=1;rounded=1;arcSize=50;align=center;verticalAlign=middle;strokeWidth=1;autosize=1;spacing=4;treeFolding=1;treeMoving=1;newEdgeStyle={&quot;edgeStyle&quot;:&quot;entityRelationEdgeStyle&quot;,&quot;startArrow&quot;:&quot;none&quot;,&quot;endArrow&quot;:&quot;none&quot;,&quot;segment&quot;:10,&quot;curved&quot;:1};shadow=0;sketch=0;gradientColor=none;strokeColor=none;fillColor=#1699D3;" parent="1" vertex="1">
          <mxGeometry x="467.5" y="4130" width="170" height="40" as="geometry" />
        </mxCell>
        <mxCell id="em-1HlqMXCPZLSbGFmnV-1940" value="" style="edgeStyle=entityRelationEdgeStyle;startArrow=none;endArrow=blockThin;segment=10;curved=1;exitX=0.909;exitY=1;exitDx=0;exitDy=0;endFill=1;strokeColor=#1699D3;exitPerimeter=0;" parent="1" source="em-1HlqMXCPZLSbGFmnV-1916" target="em-1HlqMXCPZLSbGFmnV-1939" edge="1">
          <mxGeometry relative="1" as="geometry">
            <mxPoint x="407.5" y="4070" as="sourcePoint" />
          </mxGeometry>
        </mxCell>
        <mxCell id="em-1HlqMXCPZLSbGFmnV-1941" value="&lt;font color=&quot;#ffffff&quot;&gt;&lt;span style=&quot;font-size: 12px&quot;&gt;&amp;lt;prometheus_msgs::Message&amp;gt;(&quot;/prometheus/message/main&quot;, 10)&lt;/span&gt;&lt;/font&gt;" style="whiteSpace=wrap;html=1;rounded=1;arcSize=50;align=center;verticalAlign=middle;strokeWidth=1;autosize=1;spacing=4;treeFolding=1;treeMoving=1;newEdgeStyle={&quot;edgeStyle&quot;:&quot;entityRelationEdgeStyle&quot;,&quot;startArrow&quot;:&quot;none&quot;,&quot;endArrow&quot;:&quot;none&quot;,&quot;segment&quot;:10,&quot;curved&quot;:1};shadow=0;sketch=0;gradientColor=none;strokeColor=none;fillColor=#64BBE2;" parent="1" vertex="1">
          <mxGeometry x="667.5" y="4135" width="390" height="30" as="geometry" />
        </mxCell>
        <mxCell id="em-1HlqMXCPZLSbGFmnV-1954" style="edgeStyle=orthogonalEdgeStyle;curved=1;orthogonalLoop=1;jettySize=auto;html=1;startArrow=none;startFill=0;endArrow=none;endFill=0;strokeColor=#A680B8;" parent="1" source="em-1HlqMXCPZLSbGFmnV-1943" target="em-1HlqMXCPZLSbGFmnV-1953" edge="1">
          <mxGeometry relative="1" as="geometry" />
        </mxCell>
        <mxCell id="em-1HlqMXCPZLSbGFmnV-1943" value="&lt;div style=&quot;text-align: center&quot;&gt;&lt;span style=&quot;color: rgb(255 , 255 , 255) ; text-align: left&quot;&gt;ControlCommand&lt;/span&gt;&lt;br&gt;&lt;/div&gt;&lt;font color=&quot;#ffffff&quot;&gt;&lt;span style=&quot;font-size: 12px&quot;&gt;&lt;div&gt;std_msgs/Header header&lt;br&gt;&lt;/div&gt;&lt;div&gt;uint32 Command_ID&lt;/div&gt;&lt;div&gt;string source&lt;/div&gt;&lt;div&gt;uint8 Mode&lt;/div&gt;&lt;div&gt;uint8 Idle=0&lt;/div&gt;&lt;div&gt;uint8 Takeoff=1&lt;/div&gt;&lt;div&gt;uint8 Hold=2&lt;/div&gt;&lt;div&gt;uint8 Land=3&lt;/div&gt;&lt;div&gt;uint8 Move=4&lt;/div&gt;&lt;div&gt;uint8 Disarm=5&lt;/div&gt;&lt;div&gt;uint8 User_Mode1=6&lt;/div&gt;&lt;div&gt;uint8 User_Mode2=7&lt;/div&gt;&lt;div&gt;PositionReference Reference_State&lt;/div&gt;&lt;/span&gt;&lt;/font&gt;" style="whiteSpace=wrap;html=1;rounded=0;arcSize=50;align=left;verticalAlign=bottom;strokeWidth=1;autosize=1;spacing=4;treeFolding=1;treeMoving=1;newEdgeStyle={&quot;edgeStyle&quot;:&quot;entityRelationEdgeStyle&quot;,&quot;startArrow&quot;:&quot;none&quot;,&quot;endArrow&quot;:&quot;none&quot;,&quot;segment&quot;:10,&quot;curved&quot;:1};shadow=0;sketch=0;gradientColor=none;strokeColor=none;fillColor=#A680B8;" parent="1" vertex="1">
          <mxGeometry x="762.5" y="4220" width="200" height="200" as="geometry" />
        </mxCell>
        <mxCell id="em-1HlqMXCPZLSbGFmnV-1948" style="edgeStyle=orthogonalEdgeStyle;curved=1;orthogonalLoop=1;jettySize=auto;html=1;entryX=-0.001;entryY=0.14;entryDx=0;entryDy=0;startArrow=none;startFill=0;endArrow=none;endFill=0;exitX=1;exitY=0.5;exitDx=0;exitDy=0;strokeColor=#A680B8;entryPerimeter=0;" parent="1" source="em-1HlqMXCPZLSbGFmnV-1946" target="em-1HlqMXCPZLSbGFmnV-1943" edge="1">
          <mxGeometry relative="1" as="geometry">
            <Array as="points">
              <mxPoint x="762.5" y="4218" />
            </Array>
          </mxGeometry>
        </mxCell>
        <mxCell id="em-1HlqMXCPZLSbGFmnV-1958" style="edgeStyle=orthogonalEdgeStyle;curved=1;orthogonalLoop=1;jettySize=auto;html=1;startArrow=none;startFill=0;endArrow=blockThin;endFill=1;strokeColor=#2F5B7C;" parent="1" source="em-1HlqMXCPZLSbGFmnV-1946" target="em-1HlqMXCPZLSbGFmnV-1957" edge="1">
          <mxGeometry relative="1" as="geometry" />
        </mxCell>
        <mxCell id="em-1HlqMXCPZLSbGFmnV-1946" value="&lt;font color=&quot;#ffffff&quot;&gt;&lt;span style=&quot;font-size: 12px&quot;&gt;prometheus_msgs::ControlCommand Command_Now&lt;/span&gt;&lt;/font&gt;" style="whiteSpace=wrap;html=1;rounded=0;arcSize=50;align=center;verticalAlign=middle;strokeWidth=1;autosize=1;spacing=4;treeFolding=1;treeMoving=1;newEdgeStyle={&quot;edgeStyle&quot;:&quot;entityRelationEdgeStyle&quot;,&quot;startArrow&quot;:&quot;none&quot;,&quot;endArrow&quot;:&quot;none&quot;,&quot;segment&quot;:10,&quot;curved&quot;:1};shadow=0;sketch=0;gradientColor=none;strokeColor=none;fillColor=#2F5B7C;" parent="1" vertex="1">
          <mxGeometry x="297.5" y="4190" width="330" height="30" as="geometry" />
        </mxCell>
        <mxCell id="I74rr0ujYwUD2AHIowav-60" style="edgeStyle=orthogonalEdgeStyle;rounded=0;orthogonalLoop=1;jettySize=auto;html=1;strokeColor=#97D077;" parent="1" source="em-1HlqMXCPZLSbGFmnV-1951" target="I74rr0ujYwUD2AHIowav-59" edge="1">
          <mxGeometry relative="1" as="geometry" />
        </mxCell>
        <mxCell id="em-1HlqMXCPZLSbGFmnV-1951" value="&lt;font color=&quot;#ffffff&quot;&gt;command_to_mavros.h&lt;/font&gt;" style="whiteSpace=wrap;html=1;rounded=0;arcSize=50;align=center;verticalAlign=middle;strokeWidth=1;autosize=1;spacing=4;treeFolding=1;treeMoving=1;newEdgeStyle={&quot;edgeStyle&quot;:&quot;entityRelationEdgeStyle&quot;,&quot;startArrow&quot;:&quot;none&quot;,&quot;endArrow&quot;:&quot;none&quot;,&quot;segment&quot;:10,&quot;curved&quot;:1};shadow=0;sketch=0;gradientColor=none;strokeColor=none;fillColor=#97D077;" parent="1" vertex="1">
          <mxGeometry x="1390" y="1849" width="170" height="30" as="geometry" />
        </mxCell>
        <mxCell id="em-1HlqMXCPZLSbGFmnV-1953" value="&lt;div style=&quot;text-align: center&quot;&gt;&lt;span style=&quot;color: rgb(255 , 255 , 255) ; text-align: left&quot;&gt;PositionReference&lt;/span&gt;&lt;br&gt;&lt;/div&gt;&lt;font color=&quot;#ffffff&quot;&gt;&lt;div style=&quot;font-size: 12px&quot;&gt;&lt;span&gt;std_msgs/Header header&lt;/span&gt;&lt;/div&gt;&lt;div&gt;&lt;div&gt;&lt;span style=&quot;font-size: 12px&quot;&gt;uint8 Move_mode&lt;/span&gt;&lt;/div&gt;&lt;div&gt;&lt;span style=&quot;font-size: 12px&quot;&gt;uint8 XYZ_POS = 0&lt;span style=&quot;white-space: pre&quot;&gt; &lt;/span&gt;&amp;nbsp; &amp;nbsp;#0b00&lt;/span&gt;&lt;/div&gt;&lt;div&gt;&lt;span style=&quot;font-size: 12px&quot;&gt;uint8 XY_POS_Z_VEL = 1 #0b01&amp;nbsp;&lt;/span&gt;&lt;/div&gt;&lt;div&gt;&lt;span style=&quot;font-size: 12px&quot;&gt;uint8 XY_VEL_Z_POS = 2 #0b10&lt;/span&gt;&lt;/div&gt;&lt;div&gt;&lt;span style=&quot;font-size: 12px&quot;&gt;uint8 XYZ_VEL = 3&lt;span style=&quot;white-space: pre&quot;&gt; &lt;/span&gt;&lt;span style=&quot;white-space: pre&quot;&gt; &lt;/span&gt;&amp;nbsp; &amp;nbsp;#0b11&lt;/span&gt;&lt;/div&gt;&lt;div&gt;&lt;span style=&quot;font-size: 12px&quot;&gt;uint8 XYZ_ACC = 4&lt;/span&gt;&lt;/div&gt;&lt;div&gt;&lt;span style=&quot;font-size: 12px&quot;&gt;uint8 TRAJECTORY&amp;nbsp; &amp;nbsp;= 5&lt;/span&gt;&lt;/div&gt;&lt;div&gt;&lt;span style=&quot;font-size: 12px&quot;&gt;uint8 Move_frame&lt;/span&gt;&lt;/div&gt;&lt;div&gt;&lt;span style=&quot;font-size: 12px&quot;&gt;uint8 ENU_FRAME&amp;nbsp; = 0&lt;/span&gt;&lt;/div&gt;&lt;div&gt;&lt;span style=&quot;font-size: 12px&quot;&gt;uint8 BODY_FRAME = 1&lt;/span&gt;&lt;/div&gt;&lt;div&gt;&lt;span style=&quot;font-size: 12px&quot;&gt;uint8 MIX_FRAME = 2&lt;/span&gt;&lt;/div&gt;&lt;div&gt;&lt;span style=&quot;font-size: 12px&quot;&gt;float32 time_from_start&lt;/span&gt;&lt;/div&gt;&lt;div&gt;&lt;span style=&quot;font-size: 12px&quot;&gt;float32[3] position_ref&lt;/span&gt;&lt;/div&gt;&lt;div&gt;&lt;span style=&quot;font-size: 12px&quot;&gt;float32[3] velocity_ref&lt;/span&gt;&lt;/div&gt;&lt;div&gt;&lt;span style=&quot;font-size: 12px&quot;&gt;float32[3] acceleration_ref&lt;/span&gt;&lt;/div&gt;&lt;div&gt;&lt;span style=&quot;font-size: 12px&quot;&gt;bool Yaw_Rate_Mode&lt;/span&gt;&lt;/div&gt;&lt;div&gt;&lt;span style=&quot;font-size: 12px&quot;&gt;float32 yaw_ref&lt;/span&gt;&lt;/div&gt;&lt;div&gt;&lt;span style=&quot;font-size: 12px&quot;&gt;float32 yaw_rate_ref&lt;/span&gt;&lt;/div&gt;&lt;/div&gt;&lt;/font&gt;" style="whiteSpace=wrap;html=1;rounded=0;arcSize=50;align=left;verticalAlign=bottom;strokeWidth=1;autosize=1;spacing=4;treeFolding=1;treeMoving=1;newEdgeStyle={&quot;edgeStyle&quot;:&quot;entityRelationEdgeStyle&quot;,&quot;startArrow&quot;:&quot;none&quot;,&quot;endArrow&quot;:&quot;none&quot;,&quot;segment&quot;:10,&quot;curved&quot;:1};shadow=0;sketch=0;gradientColor=none;strokeColor=none;fillColor=#A680B8;" parent="1" vertex="1">
          <mxGeometry x="977.5" y="4180" width="190" height="280" as="geometry" />
        </mxCell>
        <mxCell id="em-1HlqMXCPZLSbGFmnV-1955" value="&lt;div style=&quot;text-align: center&quot;&gt;&lt;span style=&quot;color: rgb(255 , 255 , 255) ; text-align: left&quot;&gt;AttitudeReference&lt;/span&gt;&lt;br&gt;&lt;/div&gt;&lt;font color=&quot;#ffffff&quot;&gt;&lt;div&gt;&lt;span style=&quot;font-size: 12px&quot;&gt;std_msgs/Header header&lt;/span&gt;&lt;/div&gt;&lt;/font&gt;&lt;div&gt;&lt;font color=&quot;#ffffff&quot;&gt;&lt;span style=&quot;font-size: 12px&quot;&gt;## 位置控制器输出： 期望油门 + 期望角度&lt;/span&gt;&lt;/font&gt;&lt;/div&gt;&lt;div&gt;&lt;font color=&quot;#ffffff&quot;&gt;&lt;span style=&quot;font-size: 12px&quot;&gt;float32[3] throttle_sp&lt;/span&gt;&lt;/font&gt;&lt;/div&gt;&lt;div&gt;&lt;font color=&quot;#ffffff&quot;&gt;&lt;span style=&quot;font-size: 12px&quot;&gt;float32 desired_throttle&lt;/span&gt;&lt;/font&gt;&lt;/div&gt;&lt;div&gt;&lt;font color=&quot;#ffffff&quot;&gt;&lt;span style=&quot;font-size: 12px&quot;&gt;float32[3] desired_attitude&lt;/span&gt;&lt;/font&gt;&lt;/div&gt;&lt;div&gt;&lt;font color=&quot;#ffffff&quot;&gt;&lt;span style=&quot;font-size: 12px&quot;&gt;geometry_msgs/Quaternion desired_att_q&lt;/span&gt;&lt;/font&gt;&lt;/div&gt;" style="whiteSpace=wrap;html=1;rounded=0;arcSize=50;align=left;verticalAlign=bottom;strokeWidth=1;autosize=1;spacing=4;treeFolding=1;treeMoving=1;newEdgeStyle={&quot;edgeStyle&quot;:&quot;entityRelationEdgeStyle&quot;,&quot;startArrow&quot;:&quot;none&quot;,&quot;endArrow&quot;:&quot;none&quot;,&quot;segment&quot;:10,&quot;curved&quot;:1};shadow=0;sketch=0;gradientColor=none;strokeColor=none;fillColor=#A680B8;" parent="1" vertex="1">
          <mxGeometry x="677.5" y="4430" width="240" height="110" as="geometry" />
        </mxCell>
        <mxCell id="em-1HlqMXCPZLSbGFmnV-1960" style="edgeStyle=orthogonalEdgeStyle;curved=1;orthogonalLoop=1;jettySize=auto;html=1;entryX=0;entryY=0.5;entryDx=0;entryDy=0;startArrow=none;startFill=0;endArrow=none;endFill=0;strokeColor=#A680B8;" parent="1" source="em-1HlqMXCPZLSbGFmnV-1957" target="em-1HlqMXCPZLSbGFmnV-1959" edge="1">
          <mxGeometry relative="1" as="geometry" />
        </mxCell>
        <mxCell id="em-1HlqMXCPZLSbGFmnV-1962" style="edgeStyle=orthogonalEdgeStyle;curved=1;orthogonalLoop=1;jettySize=auto;html=1;startArrow=none;startFill=0;endArrow=blockThin;endFill=1;strokeColor=#2F5B7C;" parent="1" source="em-1HlqMXCPZLSbGFmnV-1957" target="em-1HlqMXCPZLSbGFmnV-1961" edge="1">
          <mxGeometry relative="1" as="geometry" />
        </mxCell>
        <mxCell id="em-1HlqMXCPZLSbGFmnV-1957" value="&lt;font color=&quot;#ffffff&quot;&gt;prometheus_msgs::ControlOutput _ControlOutput&lt;br&gt;控制器根据当前位置和目标位置解算出所需油门&lt;br&gt;&lt;/font&gt;" style="whiteSpace=wrap;html=1;rounded=0;arcSize=50;align=center;verticalAlign=middle;strokeWidth=1;autosize=1;spacing=4;treeFolding=1;treeMoving=1;newEdgeStyle={&quot;edgeStyle&quot;:&quot;entityRelationEdgeStyle&quot;,&quot;startArrow&quot;:&quot;none&quot;,&quot;endArrow&quot;:&quot;none&quot;,&quot;segment&quot;:10,&quot;curved&quot;:1};shadow=0;sketch=0;gradientColor=none;strokeColor=none;fillColor=#2F5B7C;" parent="1" vertex="1">
          <mxGeometry x="307.5" y="4255" width="310" height="40" as="geometry" />
        </mxCell>
        <mxCell id="em-1HlqMXCPZLSbGFmnV-1959" value="&lt;div style=&quot;text-align: center&quot;&gt;&lt;span style=&quot;color: rgb(255 , 255 , 255) ; text-align: left&quot;&gt;ControlOutput&lt;/span&gt;&lt;br&gt;&lt;/div&gt;&lt;font color=&quot;#ffffff&quot;&gt;&lt;span style=&quot;font-size: 12px&quot;&gt;float32[3] thrust&lt;br&gt;float32[3] throttle&amp;nbsp;&amp;nbsp;&lt;br&gt;&lt;/span&gt;&lt;/font&gt;" style="whiteSpace=wrap;html=1;rounded=0;arcSize=50;align=left;verticalAlign=bottom;strokeWidth=1;autosize=1;spacing=4;treeFolding=1;treeMoving=1;newEdgeStyle={&quot;edgeStyle&quot;:&quot;entityRelationEdgeStyle&quot;,&quot;startArrow&quot;:&quot;none&quot;,&quot;endArrow&quot;:&quot;none&quot;,&quot;segment&quot;:10,&quot;curved&quot;:1};shadow=0;sketch=0;gradientColor=none;strokeColor=none;fillColor=#A680B8;" parent="1" vertex="1">
          <mxGeometry x="627.5" y="4250" width="106.12" height="50" as="geometry" />
        </mxCell>
        <mxCell id="em-1HlqMXCPZLSbGFmnV-1965" style="edgeStyle=orthogonalEdgeStyle;curved=1;orthogonalLoop=1;jettySize=auto;html=1;startArrow=none;startFill=0;endArrow=blockThin;endFill=1;strokeColor=#2F5B7C;" parent="1" source="em-1HlqMXCPZLSbGFmnV-1961" target="em-1HlqMXCPZLSbGFmnV-1964" edge="1">
          <mxGeometry relative="1" as="geometry" />
        </mxCell>
        <mxCell id="em-1HlqMXCPZLSbGFmnV-1961" value="&lt;font color=&quot;#ffffff&quot;&gt;prometheus_msgs::AttitudeReference _AttitudeReference&lt;br&gt;期望油门转为期望姿态发送给飞控&lt;br&gt;&lt;/font&gt;" style="whiteSpace=wrap;html=1;rounded=0;arcSize=50;align=center;verticalAlign=middle;strokeWidth=1;autosize=1;spacing=4;treeFolding=1;treeMoving=1;newEdgeStyle={&quot;edgeStyle&quot;:&quot;entityRelationEdgeStyle&quot;,&quot;startArrow&quot;:&quot;none&quot;,&quot;endArrow&quot;:&quot;none&quot;,&quot;segment&quot;:10,&quot;curved&quot;:1};shadow=0;sketch=0;gradientColor=none;strokeColor=none;fillColor=#2F5B7C;" parent="1" vertex="1">
          <mxGeometry x="287.5" y="4340" width="350" height="40" as="geometry" />
        </mxCell>
        <mxCell id="em-1HlqMXCPZLSbGFmnV-1963" style="edgeStyle=orthogonalEdgeStyle;curved=1;orthogonalLoop=1;jettySize=auto;html=1;entryX=0.14;entryY=-0.014;entryDx=0;entryDy=0;startArrow=none;startFill=0;endArrow=none;endFill=0;exitX=1;exitY=0.5;exitDx=0;exitDy=0;strokeColor=#A680B8;entryPerimeter=0;" parent="1" source="em-1HlqMXCPZLSbGFmnV-1961" target="em-1HlqMXCPZLSbGFmnV-1955" edge="1">
          <mxGeometry relative="1" as="geometry">
            <mxPoint x="557.5" y="4390" as="sourcePoint" />
            <mxPoint x="692.3" y="4420" as="targetPoint" />
            <Array as="points">
              <mxPoint x="711.5" y="4360" />
              <mxPoint x="711.5" y="4428" />
            </Array>
          </mxGeometry>
        </mxCell>
        <mxCell id="em-1HlqMXCPZLSbGFmnV-1964" value="&lt;span style=&quot;color: rgb(255 , 255 , 255)&quot;&gt;_command_to_mavros&lt;/span&gt;" style="whiteSpace=wrap;html=1;rounded=0;arcSize=50;align=center;verticalAlign=middle;strokeWidth=1;autosize=1;spacing=4;treeFolding=1;treeMoving=1;newEdgeStyle={&quot;edgeStyle&quot;:&quot;entityRelationEdgeStyle&quot;,&quot;startArrow&quot;:&quot;none&quot;,&quot;endArrow&quot;:&quot;none&quot;,&quot;segment&quot;:10,&quot;curved&quot;:1};shadow=0;sketch=0;gradientColor=none;strokeColor=none;fillColor=#2F5B7C;" parent="1" vertex="1">
          <mxGeometry x="382.5" y="4400" width="160" height="30" as="geometry" />
        </mxCell>
        <mxCell id="em-1HlqMXCPZLSbGFmnV-1966" style="edgeStyle=orthogonalEdgeStyle;curved=1;orthogonalLoop=1;jettySize=auto;html=1;exitX=0.013;exitY=0.663;exitDx=0;exitDy=0;entryX=0;entryY=0.25;entryDx=0;entryDy=0;startArrow=none;startFill=0;endArrow=none;endFill=0;strokeColor=#2F5B7C;exitPerimeter=0;dashed=1;" parent="1" source="em-1HlqMXCPZLSbGFmnV-1931" target="em-1HlqMXCPZLSbGFmnV-1961" edge="1">
          <mxGeometry relative="1" as="geometry">
            <mxPoint x="262.5" y="4125" as="sourcePoint" />
            <mxPoint x="307.5" y="4215" as="targetPoint" />
            <Array as="points">
              <mxPoint x="287.5" y="4056" />
            </Array>
          </mxGeometry>
        </mxCell>
        <mxCell id="em-1HlqMXCPZLSbGFmnV-1968" style="edgeStyle=orthogonalEdgeStyle;curved=1;orthogonalLoop=1;jettySize=auto;html=1;entryX=0;entryY=0.75;entryDx=0;entryDy=0;startArrow=none;startFill=0;endArrow=none;endFill=0;strokeColor=#2F5B7C;dashed=1;" parent="1" target="em-1HlqMXCPZLSbGFmnV-1935" edge="1">
          <mxGeometry relative="1" as="geometry">
            <mxPoint x="347.5" y="4110" as="sourcePoint" />
            <mxPoint x="367.5" y="4185" as="targetPoint" />
            <Array as="points">
              <mxPoint x="397.5" y="4110" />
            </Array>
          </mxGeometry>
        </mxCell>
        <mxCell id="em-1HlqMXCPZLSbGFmnV-1973" style="edgeStyle=orthogonalEdgeStyle;curved=1;orthogonalLoop=1;jettySize=auto;html=1;startArrow=none;startFill=0;endArrow=none;endFill=0;strokeColor=#12AAB5;" parent="1" source="em-1HlqMXCPZLSbGFmnV-1969" target="em-1HlqMXCPZLSbGFmnV-1972" edge="1">
          <mxGeometry relative="1" as="geometry" />
        </mxCell>
        <mxCell id="em-1HlqMXCPZLSbGFmnV-1969" value="&lt;font color=&quot;#ffffff&quot;&gt;&lt;span style=&quot;font-size: 12px&quot;&gt;position_target_sub 订阅无人机&lt;br&gt;期望位置/速度/加速度&lt;/span&gt;&lt;/font&gt;" style="whiteSpace=wrap;html=1;rounded=1;arcSize=50;align=center;verticalAlign=middle;strokeWidth=1;autosize=1;spacing=4;treeFolding=1;treeMoving=1;newEdgeStyle={&quot;edgeStyle&quot;:&quot;entityRelationEdgeStyle&quot;,&quot;startArrow&quot;:&quot;none&quot;,&quot;endArrow&quot;:&quot;none&quot;,&quot;segment&quot;:10,&quot;curved&quot;:1};shadow=0;sketch=0;fillColor=#12AAB5;gradientColor=none;strokeColor=none;" parent="1" vertex="1">
          <mxGeometry x="1651.12" y="1689" width="210" height="40" as="geometry" />
        </mxCell>
        <mxCell id="em-1HlqMXCPZLSbGFmnV-1970" value="" style="edgeStyle=entityRelationEdgeStyle;startArrow=blockThin;endArrow=none;segment=10;curved=1;strokeColor=#12AAB5;exitX=0.998;exitY=0.112;exitDx=0;exitDy=0;startFill=1;exitPerimeter=0;" parent="1" source="em-1HlqMXCPZLSbGFmnV-1951" target="em-1HlqMXCPZLSbGFmnV-1969" edge="1">
          <mxGeometry relative="1" as="geometry">
            <mxPoint x="1571.12" y="1801.73" as="sourcePoint" />
          </mxGeometry>
        </mxCell>
        <mxCell id="em-1HlqMXCPZLSbGFmnV-1972" value="&lt;font color=&quot;#ffffff&quot;&gt;&lt;span style=&quot;font-size: 12px&quot;&gt;&amp;lt;mavros_msgs::PositionTarget&amp;gt;(&quot;/mavros/setpoint_raw/target_local&quot;, 10, &amp;amp;command_to_mavros::pos_target_cb,this)&lt;/span&gt;&lt;/font&gt;" style="whiteSpace=wrap;html=1;rounded=1;arcSize=50;align=center;verticalAlign=middle;strokeWidth=1;autosize=1;spacing=4;treeFolding=1;treeMoving=1;newEdgeStyle={&quot;edgeStyle&quot;:&quot;entityRelationEdgeStyle&quot;,&quot;startArrow&quot;:&quot;none&quot;,&quot;endArrow&quot;:&quot;none&quot;,&quot;segment&quot;:10,&quot;curved&quot;:1};shadow=0;sketch=0;gradientColor=none;strokeColor=none;fillColor=#61C6CE;" parent="1" vertex="1">
          <mxGeometry x="1891.12" y="1694" width="660" height="30" as="geometry" />
        </mxCell>
        <mxCell id="em-1HlqMXCPZLSbGFmnV-1978" style="edgeStyle=orthogonalEdgeStyle;curved=1;orthogonalLoop=1;jettySize=auto;html=1;startArrow=none;startFill=0;endArrow=none;endFill=0;strokeColor=#12AAB5;" parent="1" source="em-1HlqMXCPZLSbGFmnV-1974" target="em-1HlqMXCPZLSbGFmnV-1977" edge="1">
          <mxGeometry relative="1" as="geometry" />
        </mxCell>
        <mxCell id="em-1HlqMXCPZLSbGFmnV-1974" value="&lt;font color=&quot;#ffffff&quot;&gt;&lt;span style=&quot;font-size: 12px&quot;&gt;attitude_target_sub 订阅无人机&lt;br&gt;期望角度/角速度&amp;nbsp;&lt;/span&gt;&lt;/font&gt;" style="whiteSpace=wrap;html=1;rounded=1;arcSize=50;align=center;verticalAlign=middle;strokeWidth=1;autosize=1;spacing=4;treeFolding=1;treeMoving=1;newEdgeStyle={&quot;edgeStyle&quot;:&quot;entityRelationEdgeStyle&quot;,&quot;startArrow&quot;:&quot;none&quot;,&quot;endArrow&quot;:&quot;none&quot;,&quot;segment&quot;:10,&quot;curved&quot;:1};shadow=0;sketch=0;fillColor=#12AAB5;gradientColor=none;strokeColor=none;" parent="1" vertex="1">
          <mxGeometry x="1651.12" y="1739" width="210" height="40" as="geometry" />
        </mxCell>
        <mxCell id="em-1HlqMXCPZLSbGFmnV-1975" value="" style="edgeStyle=entityRelationEdgeStyle;startArrow=blockThin;endArrow=none;segment=10;curved=1;strokeColor=#12AAB5;exitX=0.998;exitY=0.336;exitDx=0;exitDy=0;startFill=1;exitPerimeter=0;" parent="1" source="em-1HlqMXCPZLSbGFmnV-1951" target="em-1HlqMXCPZLSbGFmnV-1974" edge="1">
          <mxGeometry relative="1" as="geometry">
            <mxPoint x="1561.1199999999997" y="1845.3599999999997" as="sourcePoint" />
          </mxGeometry>
        </mxCell>
        <mxCell id="em-1HlqMXCPZLSbGFmnV-1977" value="&lt;font color=&quot;#ffffff&quot;&gt;&lt;span style=&quot;font-size: 12px&quot;&gt;&amp;lt;mavros_msgs::AttitudeTarget&amp;gt;(&quot;/mavros/setpoint_raw/target_attitude&quot;, 10, &amp;amp;command_to_mavros::att_target_cb,this)&lt;/span&gt;&lt;/font&gt;" style="whiteSpace=wrap;html=1;rounded=1;arcSize=50;align=center;verticalAlign=middle;strokeWidth=1;autosize=1;spacing=4;treeFolding=1;treeMoving=1;newEdgeStyle={&quot;edgeStyle&quot;:&quot;entityRelationEdgeStyle&quot;,&quot;startArrow&quot;:&quot;none&quot;,&quot;endArrow&quot;:&quot;none&quot;,&quot;segment&quot;:10,&quot;curved&quot;:1};shadow=0;sketch=0;gradientColor=none;strokeColor=none;fillColor=#61C6CE;" parent="1" vertex="1">
          <mxGeometry x="1891.12" y="1744" width="670" height="30" as="geometry" />
        </mxCell>
        <mxCell id="em-1HlqMXCPZLSbGFmnV-1982" style="edgeStyle=orthogonalEdgeStyle;curved=1;orthogonalLoop=1;jettySize=auto;html=1;startArrow=none;startFill=0;endArrow=none;endFill=0;strokeColor=#12AAB5;" parent="1" source="em-1HlqMXCPZLSbGFmnV-1979" target="em-1HlqMXCPZLSbGFmnV-1981" edge="1">
          <mxGeometry relative="1" as="geometry" />
        </mxCell>
        <mxCell id="em-1HlqMXCPZLSbGFmnV-1979" value="&lt;font color=&quot;#ffffff&quot;&gt;&lt;span style=&quot;font-size: 12px&quot;&gt;actuator_target_sub 订阅无人机&lt;br&gt;底层控制量（Mx My Mz F）&lt;/span&gt;&lt;/font&gt;" style="whiteSpace=wrap;html=1;rounded=1;arcSize=50;align=center;verticalAlign=middle;strokeWidth=1;autosize=1;spacing=4;treeFolding=1;treeMoving=1;newEdgeStyle={&quot;edgeStyle&quot;:&quot;entityRelationEdgeStyle&quot;,&quot;startArrow&quot;:&quot;none&quot;,&quot;endArrow&quot;:&quot;none&quot;,&quot;segment&quot;:10,&quot;curved&quot;:1};shadow=0;sketch=0;fillColor=#12AAB5;gradientColor=none;strokeColor=none;" parent="1" vertex="1">
          <mxGeometry x="1651.12" y="1792" width="210" height="40" as="geometry" />
        </mxCell>
        <mxCell id="em-1HlqMXCPZLSbGFmnV-1980" value="" style="edgeStyle=entityRelationEdgeStyle;startArrow=blockThin;endArrow=none;segment=10;curved=1;strokeColor=#12AAB5;exitX=1.004;exitY=0.614;exitDx=0;exitDy=0;startFill=1;exitPerimeter=0;" parent="1" source="em-1HlqMXCPZLSbGFmnV-1951" target="em-1HlqMXCPZLSbGFmnV-1979" edge="1">
          <mxGeometry relative="1" as="geometry">
            <mxPoint x="1560.7799999999997" y="1852.08" as="sourcePoint" />
          </mxGeometry>
        </mxCell>
        <mxCell id="em-1HlqMXCPZLSbGFmnV-1981" value="&lt;font color=&quot;#ffffff&quot;&gt;&lt;span style=&quot;font-size: 12px&quot;&gt;&amp;lt;mavros_msgs::ActuatorControl&amp;gt;(&quot;/mavros/target_actuator_control&quot;, 10, &amp;amp;command_to_mavros::actuator_target_cb,this)&lt;/span&gt;&lt;/font&gt;" style="whiteSpace=wrap;html=1;rounded=1;arcSize=50;align=center;verticalAlign=middle;strokeWidth=1;autosize=1;spacing=4;treeFolding=1;treeMoving=1;newEdgeStyle={&quot;edgeStyle&quot;:&quot;entityRelationEdgeStyle&quot;,&quot;startArrow&quot;:&quot;none&quot;,&quot;endArrow&quot;:&quot;none&quot;,&quot;segment&quot;:10,&quot;curved&quot;:1};shadow=0;sketch=0;gradientColor=none;strokeColor=none;fillColor=#61C6CE;" parent="1" vertex="1">
          <mxGeometry x="1891.12" y="1797" width="680" height="30" as="geometry" />
        </mxCell>
        <mxCell id="em-1HlqMXCPZLSbGFmnV-1986" style="edgeStyle=orthogonalEdgeStyle;curved=1;orthogonalLoop=1;jettySize=auto;html=1;startArrow=none;startFill=0;endArrow=none;endFill=0;strokeColor=#1699D3;" parent="1" source="em-1HlqMXCPZLSbGFmnV-1983" target="em-1HlqMXCPZLSbGFmnV-1985" edge="1">
          <mxGeometry relative="1" as="geometry" />
        </mxCell>
        <mxCell id="em-1HlqMXCPZLSbGFmnV-1983" value="&lt;font color=&quot;#ffffff&quot;&gt;&lt;span style=&quot;font-size: 12px&quot;&gt;setpoint_raw_local_pub &lt;br&gt;发布位置/速度/加速度期望值&lt;/span&gt;&lt;/font&gt;" style="whiteSpace=wrap;html=1;rounded=1;arcSize=50;align=center;verticalAlign=middle;strokeWidth=1;autosize=1;spacing=4;treeFolding=1;treeMoving=1;newEdgeStyle={&quot;edgeStyle&quot;:&quot;entityRelationEdgeStyle&quot;,&quot;startArrow&quot;:&quot;none&quot;,&quot;endArrow&quot;:&quot;none&quot;,&quot;segment&quot;:10,&quot;curved&quot;:1};shadow=0;sketch=0;gradientColor=none;strokeColor=none;fillColor=#1699D3;" parent="1" vertex="1">
          <mxGeometry x="1651.12" y="1849" width="190" height="40" as="geometry" />
        </mxCell>
        <mxCell id="em-1HlqMXCPZLSbGFmnV-1984" value="" style="edgeStyle=entityRelationEdgeStyle;startArrow=none;endArrow=blockThin;segment=10;curved=1;exitX=1.013;exitY=0.852;exitDx=0;exitDy=0;exitPerimeter=0;endFill=1;strokeColor=#1699D3;" parent="1" source="em-1HlqMXCPZLSbGFmnV-1951" target="em-1HlqMXCPZLSbGFmnV-1983" edge="1">
          <mxGeometry relative="1" as="geometry">
            <mxPoint x="1588.8799999999999" y="1837" as="sourcePoint" />
          </mxGeometry>
        </mxCell>
        <mxCell id="em-1HlqMXCPZLSbGFmnV-1985" value="&lt;font color=&quot;#ffffff&quot;&gt;&lt;span style=&quot;font-size: 12px&quot;&gt;&amp;lt;mavros_msgs::PositionTarget&amp;gt;(&quot;/mavros/setpoint_raw/local&quot;, 10)&lt;/span&gt;&lt;/font&gt;" style="whiteSpace=wrap;html=1;rounded=1;arcSize=50;align=center;verticalAlign=middle;strokeWidth=1;autosize=1;spacing=4;treeFolding=1;treeMoving=1;newEdgeStyle={&quot;edgeStyle&quot;:&quot;entityRelationEdgeStyle&quot;,&quot;startArrow&quot;:&quot;none&quot;,&quot;endArrow&quot;:&quot;none&quot;,&quot;segment&quot;:10,&quot;curved&quot;:1};shadow=0;sketch=0;gradientColor=none;strokeColor=none;fillColor=#64BBE2;" parent="1" vertex="1">
          <mxGeometry x="1891.12" y="1854" width="390" height="30" as="geometry" />
        </mxCell>
        <mxCell id="em-1HlqMXCPZLSbGFmnV-1992" style="edgeStyle=orthogonalEdgeStyle;curved=1;orthogonalLoop=1;jettySize=auto;html=1;startArrow=none;startFill=0;endArrow=none;endFill=0;strokeColor=#1699D3;" parent="1" source="em-1HlqMXCPZLSbGFmnV-1987" target="em-1HlqMXCPZLSbGFmnV-1991" edge="1">
          <mxGeometry relative="1" as="geometry" />
        </mxCell>
        <mxCell id="em-1HlqMXCPZLSbGFmnV-1987" value="&lt;font color=&quot;#ffffff&quot;&gt;&lt;span style=&quot;font-size: 12px&quot;&gt;setpoint_raw_attitude_pub&lt;br&gt;发布角度/角速度期望值&lt;/span&gt;&lt;/font&gt;" style="whiteSpace=wrap;html=1;rounded=1;arcSize=50;align=center;verticalAlign=middle;strokeWidth=1;autosize=1;spacing=4;treeFolding=1;treeMoving=1;newEdgeStyle={&quot;edgeStyle&quot;:&quot;entityRelationEdgeStyle&quot;,&quot;startArrow&quot;:&quot;none&quot;,&quot;endArrow&quot;:&quot;none&quot;,&quot;segment&quot;:10,&quot;curved&quot;:1};shadow=0;sketch=0;gradientColor=none;strokeColor=none;fillColor=#1699D3;" parent="1" vertex="1">
          <mxGeometry x="1651.12" y="1898.44" width="180" height="40" as="geometry" />
        </mxCell>
        <mxCell id="em-1HlqMXCPZLSbGFmnV-1988" value="" style="edgeStyle=entityRelationEdgeStyle;startArrow=none;endArrow=blockThin;segment=10;curved=1;exitX=1;exitY=1;exitDx=0;exitDy=0;endFill=1;strokeColor=#1699D3;" parent="1" source="em-1HlqMXCPZLSbGFmnV-1951" target="em-1HlqMXCPZLSbGFmnV-1987" edge="1">
          <mxGeometry relative="1" as="geometry">
            <mxPoint x="1562.21" y="1884" as="sourcePoint" />
          </mxGeometry>
        </mxCell>
        <mxCell id="em-1HlqMXCPZLSbGFmnV-1991" value="&lt;font color=&quot;#ffffff&quot;&gt;&lt;span style=&quot;font-size: 12px&quot;&gt;&amp;lt;mavros_msgs::AttitudeTarget&amp;gt;(&quot;/mavros/setpoint_raw/attitude&quot;, 10)&lt;/span&gt;&lt;/font&gt;" style="whiteSpace=wrap;html=1;rounded=1;arcSize=50;align=center;verticalAlign=middle;strokeWidth=1;autosize=1;spacing=4;treeFolding=1;treeMoving=1;newEdgeStyle={&quot;edgeStyle&quot;:&quot;entityRelationEdgeStyle&quot;,&quot;startArrow&quot;:&quot;none&quot;,&quot;endArrow&quot;:&quot;none&quot;,&quot;segment&quot;:10,&quot;curved&quot;:1};shadow=0;sketch=0;gradientColor=none;strokeColor=none;fillColor=#64BBE2;" parent="1" vertex="1">
          <mxGeometry x="1891.12" y="1903.44" width="400" height="30" as="geometry" />
        </mxCell>
        <mxCell id="em-1HlqMXCPZLSbGFmnV-1996" style="edgeStyle=orthogonalEdgeStyle;curved=1;orthogonalLoop=1;jettySize=auto;html=1;startArrow=none;startFill=0;endArrow=none;endFill=0;strokeColor=#1699D3;" parent="1" source="em-1HlqMXCPZLSbGFmnV-1993" target="em-1HlqMXCPZLSbGFmnV-1995" edge="1">
          <mxGeometry relative="1" as="geometry" />
        </mxCell>
        <mxCell id="em-1HlqMXCPZLSbGFmnV-1993" value="&lt;font color=&quot;#ffffff&quot;&gt;&lt;span style=&quot;font-size: 12px&quot;&gt;actuator_setpoint_pub&lt;br&gt;发布底层控制量（Mx My Mz F）&lt;/span&gt;&lt;/font&gt;" style="whiteSpace=wrap;html=1;rounded=1;arcSize=50;align=center;verticalAlign=middle;strokeWidth=1;autosize=1;spacing=4;treeFolding=1;treeMoving=1;newEdgeStyle={&quot;edgeStyle&quot;:&quot;entityRelationEdgeStyle&quot;,&quot;startArrow&quot;:&quot;none&quot;,&quot;endArrow&quot;:&quot;none&quot;,&quot;segment&quot;:10,&quot;curved&quot;:1};shadow=0;sketch=0;gradientColor=none;strokeColor=none;fillColor=#1699D3;" parent="1" vertex="1">
          <mxGeometry x="1651.12" y="1949" width="210" height="40" as="geometry" />
        </mxCell>
        <mxCell id="em-1HlqMXCPZLSbGFmnV-1994" value="" style="edgeStyle=entityRelationEdgeStyle;startArrow=none;endArrow=blockThin;segment=10;curved=1;exitX=0.933;exitY=1.085;exitDx=0;exitDy=0;endFill=1;strokeColor=#1699D3;exitPerimeter=0;" parent="1" source="em-1HlqMXCPZLSbGFmnV-1951" target="em-1HlqMXCPZLSbGFmnV-1993" edge="1">
          <mxGeometry relative="1" as="geometry">
            <mxPoint x="1560" y="1889" as="sourcePoint" />
          </mxGeometry>
        </mxCell>
        <mxCell id="em-1HlqMXCPZLSbGFmnV-1995" value="&lt;font color=&quot;#ffffff&quot;&gt;&lt;span style=&quot;font-size: 12px&quot;&gt;&amp;lt;mavros_msgs::ActuatorControl&amp;gt;(&quot;/mavros/actuator_control&quot;, 10)&lt;/span&gt;&lt;/font&gt;" style="whiteSpace=wrap;html=1;rounded=1;arcSize=50;align=center;verticalAlign=middle;strokeWidth=1;autosize=1;spacing=4;treeFolding=1;treeMoving=1;newEdgeStyle={&quot;edgeStyle&quot;:&quot;entityRelationEdgeStyle&quot;,&quot;startArrow&quot;:&quot;none&quot;,&quot;endArrow&quot;:&quot;none&quot;,&quot;segment&quot;:10,&quot;curved&quot;:1};shadow=0;sketch=0;gradientColor=none;strokeColor=none;fillColor=#64BBE2;" parent="1" vertex="1">
          <mxGeometry x="1891.12" y="1954" width="390" height="30" as="geometry" />
        </mxCell>
        <mxCell id="em-1HlqMXCPZLSbGFmnV-2004" style="edgeStyle=orthogonalEdgeStyle;curved=1;orthogonalLoop=1;jettySize=auto;html=1;startArrow=none;startFill=0;endArrow=none;endFill=0;strokeColor=#FFB570;" parent="1" source="em-1HlqMXCPZLSbGFmnV-1997" target="em-1HlqMXCPZLSbGFmnV-2003" edge="1">
          <mxGeometry relative="1" as="geometry" />
        </mxCell>
        <mxCell id="em-1HlqMXCPZLSbGFmnV-1997" value="&lt;font color=&quot;#ffffff&quot;&gt;&lt;span style=&quot;font-size: 12px&quot;&gt;arming_client 服务:解锁/上锁&lt;/span&gt;&lt;/font&gt;" style="whiteSpace=wrap;html=1;rounded=1;arcSize=50;align=center;verticalAlign=middle;strokeWidth=1;autosize=1;spacing=4;treeFolding=1;treeMoving=1;newEdgeStyle={&quot;edgeStyle&quot;:&quot;entityRelationEdgeStyle&quot;,&quot;startArrow&quot;:&quot;none&quot;,&quot;endArrow&quot;:&quot;none&quot;,&quot;segment&quot;:10,&quot;curved&quot;:1};shadow=0;sketch=0;gradientColor=none;strokeColor=none;fillColor=#FFB570;" parent="1" vertex="1">
          <mxGeometry x="1650" y="2049" width="190" height="30" as="geometry" />
        </mxCell>
        <mxCell id="em-1HlqMXCPZLSbGFmnV-1998" value="" style="edgeStyle=entityRelationEdgeStyle;startArrow=none;endArrow=none;segment=10;curved=1;exitX=0.83;exitY=1;exitDx=0;exitDy=0;endFill=0;exitPerimeter=0;strokeColor=#FFB570;" parent="1" source="em-1HlqMXCPZLSbGFmnV-1951" target="em-1HlqMXCPZLSbGFmnV-1997" edge="1">
          <mxGeometry relative="1" as="geometry">
            <mxPoint x="1548.6100000000001" y="1901.5500000000002" as="sourcePoint" />
          </mxGeometry>
        </mxCell>
        <mxCell id="em-1HlqMXCPZLSbGFmnV-2002" style="edgeStyle=orthogonalEdgeStyle;curved=1;orthogonalLoop=1;jettySize=auto;html=1;startArrow=none;startFill=0;endArrow=none;endFill=0;strokeColor=#1699D3;" parent="1" source="em-1HlqMXCPZLSbGFmnV-1999" target="em-1HlqMXCPZLSbGFmnV-2001" edge="1">
          <mxGeometry relative="1" as="geometry" />
        </mxCell>
        <mxCell id="em-1HlqMXCPZLSbGFmnV-1999" value="&lt;font color=&quot;#ffffff&quot;&gt;mount_control_pub&lt;br&gt;发送云台控制指令&lt;br&gt;&lt;/font&gt;" style="whiteSpace=wrap;html=1;rounded=1;arcSize=50;align=center;verticalAlign=middle;strokeWidth=1;autosize=1;spacing=4;treeFolding=1;treeMoving=1;newEdgeStyle={&quot;edgeStyle&quot;:&quot;entityRelationEdgeStyle&quot;,&quot;startArrow&quot;:&quot;none&quot;,&quot;endArrow&quot;:&quot;none&quot;,&quot;segment&quot;:10,&quot;curved&quot;:1};shadow=0;sketch=0;gradientColor=none;strokeColor=none;fillColor=#1699D3;" parent="1" vertex="1">
          <mxGeometry x="1651.12" y="1999" width="140" height="40" as="geometry" />
        </mxCell>
        <mxCell id="em-1HlqMXCPZLSbGFmnV-2000" value="" style="edgeStyle=entityRelationEdgeStyle;startArrow=none;endArrow=blockThin;segment=10;curved=1;exitX=0.879;exitY=0.987;exitDx=0;exitDy=0;endFill=1;strokeColor=#1699D3;exitPerimeter=0;" parent="1" source="em-1HlqMXCPZLSbGFmnV-1951" target="em-1HlqMXCPZLSbGFmnV-1999" edge="1">
          <mxGeometry relative="1" as="geometry">
            <mxPoint x="1551.1200000000001" y="1895.27" as="sourcePoint" />
          </mxGeometry>
        </mxCell>
        <mxCell id="em-1HlqMXCPZLSbGFmnV-2001" value="&lt;font color=&quot;#ffffff&quot;&gt;&lt;span style=&quot;font-size: 12px&quot;&gt;&amp;lt;mavros_msgs::MountControl&amp;gt;(&quot;/mavros/mount_control/command&quot;, 1)&lt;/span&gt;&lt;/font&gt;" style="whiteSpace=wrap;html=1;rounded=1;arcSize=50;align=center;verticalAlign=middle;strokeWidth=1;autosize=1;spacing=4;treeFolding=1;treeMoving=1;newEdgeStyle={&quot;edgeStyle&quot;:&quot;entityRelationEdgeStyle&quot;,&quot;startArrow&quot;:&quot;none&quot;,&quot;endArrow&quot;:&quot;none&quot;,&quot;segment&quot;:10,&quot;curved&quot;:1};shadow=0;sketch=0;gradientColor=none;strokeColor=none;fillColor=#64BBE2;" parent="1" vertex="1">
          <mxGeometry x="1891.12" y="2004" width="410" height="30" as="geometry" />
        </mxCell>
        <mxCell id="em-1HlqMXCPZLSbGFmnV-2003" value="&lt;font color=&quot;#ffffff&quot;&gt;&lt;span style=&quot;font-size: 12px&quot;&gt;&amp;lt;mavros_msgs::CommandBool&amp;gt;(&quot;/mavros/cmd/arming&quot;)&lt;/span&gt;&lt;/font&gt;" style="whiteSpace=wrap;html=1;rounded=1;arcSize=50;align=center;verticalAlign=middle;strokeWidth=1;autosize=1;spacing=4;treeFolding=1;treeMoving=1;newEdgeStyle={&quot;edgeStyle&quot;:&quot;entityRelationEdgeStyle&quot;,&quot;startArrow&quot;:&quot;none&quot;,&quot;endArrow&quot;:&quot;none&quot;,&quot;segment&quot;:10,&quot;curved&quot;:1};shadow=0;sketch=0;gradientColor=none;strokeColor=none;fillColor=#FFB570;" parent="1" vertex="1">
          <mxGeometry x="1891.12" y="2049" width="340" height="30" as="geometry" />
        </mxCell>
        <mxCell id="em-1HlqMXCPZLSbGFmnV-2008" style="edgeStyle=orthogonalEdgeStyle;curved=1;orthogonalLoop=1;jettySize=auto;html=1;startArrow=none;startFill=0;endArrow=none;endFill=0;strokeColor=#FFB570;" parent="1" source="em-1HlqMXCPZLSbGFmnV-2005" target="em-1HlqMXCPZLSbGFmnV-2007" edge="1">
          <mxGeometry relative="1" as="geometry" />
        </mxCell>
        <mxCell id="em-1HlqMXCPZLSbGFmnV-2005" value="&lt;font color=&quot;#ffffff&quot;&gt;&lt;span style=&quot;font-size: 12px&quot;&gt;set_mode_client&lt;br&gt;服务:修改系统模式&lt;/span&gt;&lt;/font&gt;" style="whiteSpace=wrap;html=1;rounded=1;arcSize=50;align=center;verticalAlign=middle;strokeWidth=1;autosize=1;spacing=4;treeFolding=1;treeMoving=1;newEdgeStyle={&quot;edgeStyle&quot;:&quot;entityRelationEdgeStyle&quot;,&quot;startArrow&quot;:&quot;none&quot;,&quot;endArrow&quot;:&quot;none&quot;,&quot;segment&quot;:10,&quot;curved&quot;:1};shadow=0;sketch=0;gradientColor=none;strokeColor=none;fillColor=#FFB570;" parent="1" vertex="1">
          <mxGeometry x="1650" y="2099" width="140" height="40" as="geometry" />
        </mxCell>
        <mxCell id="em-1HlqMXCPZLSbGFmnV-2006" value="" style="edgeStyle=entityRelationEdgeStyle;startArrow=none;endArrow=none;segment=10;curved=1;exitX=0.75;exitY=1;exitDx=0;exitDy=0;endFill=0;strokeColor=#FFB570;" parent="1" source="em-1HlqMXCPZLSbGFmnV-1951" target="em-1HlqMXCPZLSbGFmnV-2005" edge="1">
          <mxGeometry relative="1" as="geometry">
            <mxPoint x="1531.1" y="1919" as="sourcePoint" />
          </mxGeometry>
        </mxCell>
        <mxCell id="em-1HlqMXCPZLSbGFmnV-2007" value="&lt;font color=&quot;#ffffff&quot;&gt;&lt;span style=&quot;font-size: 12px&quot;&gt;&amp;lt;mavros_msgs::SetMode&amp;gt;(&quot;/mavros/set_mode&quot;)&lt;/span&gt;&lt;/font&gt;" style="whiteSpace=wrap;html=1;rounded=1;arcSize=50;align=center;verticalAlign=middle;strokeWidth=1;autosize=1;spacing=4;treeFolding=1;treeMoving=1;newEdgeStyle={&quot;edgeStyle&quot;:&quot;entityRelationEdgeStyle&quot;,&quot;startArrow&quot;:&quot;none&quot;,&quot;endArrow&quot;:&quot;none&quot;,&quot;segment&quot;:10,&quot;curved&quot;:1};shadow=0;sketch=0;gradientColor=none;strokeColor=none;fillColor=#FFB570;" parent="1" vertex="1">
          <mxGeometry x="1891.12" y="2104" width="300" height="30" as="geometry" />
        </mxCell>
        <mxCell id="I74rr0ujYwUD2AHIowav-1" value="&lt;font color=&quot;#ffffff&quot;&gt;px4_sender&lt;/font&gt;" style="ellipse;whiteSpace=wrap;html=1;align=center;newEdgeStyle={&quot;edgeStyle&quot;:&quot;entityRelationEdgeStyle&quot;,&quot;startArrow&quot;:&quot;none&quot;,&quot;endArrow&quot;:&quot;none&quot;,&quot;segment&quot;:10,&quot;curved&quot;:1};treeFolding=1;treeMoving=1;strokeColor=none;sketch=0;shadow=0;fillColor=#EA6B66;" parent="1" vertex="1">
          <mxGeometry x="60.00000000000001" y="1854" width="125" height="40" as="geometry" />
        </mxCell>
        <mxCell id="I74rr0ujYwUD2AHIowav-2" value="&lt;font color=&quot;#ffffff&quot;&gt;sub and pub&lt;/font&gt;" style="whiteSpace=wrap;html=1;rounded=0;arcSize=50;align=center;verticalAlign=middle;strokeWidth=1;autosize=1;spacing=4;treeFolding=1;treeMoving=1;newEdgeStyle={&quot;edgeStyle&quot;:&quot;entityRelationEdgeStyle&quot;,&quot;startArrow&quot;:&quot;none&quot;,&quot;endArrow&quot;:&quot;none&quot;,&quot;segment&quot;:10,&quot;curved&quot;:1};shadow=0;sketch=0;gradientColor=none;strokeColor=none;fillColor=#2F5B7C;" parent="1" vertex="1">
          <mxGeometry x="230" y="1754" width="110" height="30" as="geometry" />
        </mxCell>
        <mxCell id="I74rr0ujYwUD2AHIowav-3" value="" style="edgeStyle=entityRelationEdgeStyle;startArrow=none;endArrow=none;segment=10;curved=1;entryX=0;entryY=0.5;entryDx=0;entryDy=0;strokeColor=#2F5B7C;" parent="1" source="I74rr0ujYwUD2AHIowav-1" target="I74rr0ujYwUD2AHIowav-2" edge="1">
          <mxGeometry relative="1" as="geometry">
            <mxPoint x="185" y="1869" as="sourcePoint" />
            <mxPoint x="111" y="1536.6400000000003" as="targetPoint" />
          </mxGeometry>
        </mxCell>
        <mxCell id="I74rr0ujYwUD2AHIowav-8" style="edgeStyle=orthogonalEdgeStyle;curved=1;orthogonalLoop=1;jettySize=auto;html=1;startArrow=none;startFill=0;endArrow=none;endFill=0;strokeColor=#12AAB5;" parent="1" source="I74rr0ujYwUD2AHIowav-9" target="I74rr0ujYwUD2AHIowav-11" edge="1">
          <mxGeometry relative="1" as="geometry" />
        </mxCell>
        <mxCell id="I74rr0ujYwUD2AHIowav-9" value="&lt;font color=&quot;#ffffff&quot;&gt;&lt;span style=&quot;font-size: 12px&quot;&gt;Command_sub 订阅任务&lt;br&gt;模块生成的控制指令&lt;/span&gt;&lt;/font&gt;" style="whiteSpace=wrap;html=1;rounded=1;arcSize=50;align=center;verticalAlign=middle;strokeWidth=1;autosize=1;spacing=4;treeFolding=1;treeMoving=1;newEdgeStyle={&quot;edgeStyle&quot;:&quot;entityRelationEdgeStyle&quot;,&quot;startArrow&quot;:&quot;none&quot;,&quot;endArrow&quot;:&quot;none&quot;,&quot;segment&quot;:10,&quot;curved&quot;:1};shadow=0;sketch=0;fillColor=#12AAB5;gradientColor=none;strokeColor=none;" parent="1" vertex="1">
          <mxGeometry x="390" y="1674" width="170" height="40" as="geometry" />
        </mxCell>
        <mxCell id="I74rr0ujYwUD2AHIowav-10" value="" style="edgeStyle=entityRelationEdgeStyle;startArrow=blockThin;endArrow=none;segment=10;curved=1;strokeColor=#12AAB5;exitX=1.014;exitY=0.14;exitDx=0;exitDy=0;startFill=1;exitPerimeter=0;" parent="1" source="I74rr0ujYwUD2AHIowav-2" target="I74rr0ujYwUD2AHIowav-9" edge="1">
          <mxGeometry relative="1" as="geometry">
            <mxPoint x="348.88" y="1826.73" as="sourcePoint" />
          </mxGeometry>
        </mxCell>
        <mxCell id="I74rr0ujYwUD2AHIowav-11" value="&lt;font color=&quot;#ffffff&quot;&gt;&lt;span style=&quot;font-size: 12px&quot;&gt;&amp;lt;prometheus_msgs::ControlCommand&amp;gt;(&quot;/prometheus/control_command&quot;, 10, Command_cb)&lt;/span&gt;&lt;/font&gt;" style="whiteSpace=wrap;html=1;rounded=1;arcSize=50;align=center;verticalAlign=middle;strokeWidth=1;autosize=1;spacing=4;treeFolding=1;treeMoving=1;newEdgeStyle={&quot;edgeStyle&quot;:&quot;entityRelationEdgeStyle&quot;,&quot;startArrow&quot;:&quot;none&quot;,&quot;endArrow&quot;:&quot;none&quot;,&quot;segment&quot;:10,&quot;curved&quot;:1};shadow=0;sketch=0;gradientColor=none;strokeColor=none;fillColor=#61C6CE;" parent="1" vertex="1">
          <mxGeometry x="610" y="1679" width="540" height="30" as="geometry" />
        </mxCell>
        <mxCell id="I74rr0ujYwUD2AHIowav-12" value="&lt;font color=&quot;#ffffff&quot;&gt;&lt;span style=&quot;font-size: 12px&quot;&gt;station_command_sub 订阅&lt;br&gt;地面站发送的控制指令&lt;/span&gt;&lt;/font&gt;" style="whiteSpace=wrap;html=1;rounded=1;arcSize=50;align=center;verticalAlign=middle;strokeWidth=1;autosize=1;spacing=4;treeFolding=1;treeMoving=1;newEdgeStyle={&quot;edgeStyle&quot;:&quot;entityRelationEdgeStyle&quot;,&quot;startArrow&quot;:&quot;none&quot;,&quot;endArrow&quot;:&quot;none&quot;,&quot;segment&quot;:10,&quot;curved&quot;:1};shadow=0;sketch=0;fillColor=#12AAB5;gradientColor=none;strokeColor=none;" parent="1" vertex="1">
          <mxGeometry x="390" y="1719" width="190" height="40" as="geometry" />
        </mxCell>
        <mxCell id="I74rr0ujYwUD2AHIowav-13" value="" style="edgeStyle=entityRelationEdgeStyle;startArrow=blockThin;endArrow=none;segment=10;curved=1;strokeColor=#12AAB5;startFill=1;exitX=1.014;exitY=0.439;exitDx=0;exitDy=0;exitPerimeter=0;" parent="1" source="I74rr0ujYwUD2AHIowav-2" target="I74rr0ujYwUD2AHIowav-12" edge="1">
          <mxGeometry relative="1" as="geometry">
            <mxPoint x="348.88" y="1834.08" as="sourcePoint" />
          </mxGeometry>
        </mxCell>
        <mxCell id="I74rr0ujYwUD2AHIowav-14" value="&lt;font color=&quot;#ffffff&quot;&gt;&lt;span style=&quot;font-size: 12px&quot;&gt;&amp;lt;prometheus_msgs::ControlCommand&amp;gt;(&quot;/prometheus/control_command_station&quot;, 10, station_command_cb)&lt;/span&gt;&lt;/font&gt;" style="whiteSpace=wrap;html=1;rounded=1;arcSize=50;align=center;verticalAlign=middle;strokeWidth=1;autosize=1;spacing=4;treeFolding=1;treeMoving=1;newEdgeStyle={&quot;edgeStyle&quot;:&quot;entityRelationEdgeStyle&quot;,&quot;startArrow&quot;:&quot;none&quot;,&quot;endArrow&quot;:&quot;none&quot;,&quot;segment&quot;:10,&quot;curved&quot;:1};shadow=0;sketch=0;gradientColor=none;strokeColor=none;fillColor=#61C6CE;" parent="1" vertex="1">
          <mxGeometry x="610" y="1724" width="620" height="30" as="geometry" />
        </mxCell>
        <mxCell id="I74rr0ujYwUD2AHIowav-15" style="edgeStyle=orthogonalEdgeStyle;curved=1;orthogonalLoop=1;jettySize=auto;html=1;startArrow=none;startFill=0;endArrow=none;endFill=0;strokeColor=#12AAB5;" parent="1" source="I74rr0ujYwUD2AHIowav-16" target="I74rr0ujYwUD2AHIowav-18" edge="1">
          <mxGeometry relative="1" as="geometry" />
        </mxCell>
        <mxCell id="I74rr0ujYwUD2AHIowav-16" value="&lt;font color=&quot;#ffffff&quot;&gt;&lt;span style=&quot;font-size: 12px&quot;&gt;drone_state_sub&lt;br&gt;订阅无人机状态&lt;/span&gt;&lt;/font&gt;" style="whiteSpace=wrap;html=1;rounded=1;arcSize=50;align=center;verticalAlign=middle;strokeWidth=1;autosize=1;spacing=4;treeFolding=1;treeMoving=1;newEdgeStyle={&quot;edgeStyle&quot;:&quot;entityRelationEdgeStyle&quot;,&quot;startArrow&quot;:&quot;none&quot;,&quot;endArrow&quot;:&quot;none&quot;,&quot;segment&quot;:10,&quot;curved&quot;:1};shadow=0;sketch=0;fillColor=#12AAB5;gradientColor=none;strokeColor=none;" parent="1" vertex="1">
          <mxGeometry x="390" y="1764" width="130" height="40" as="geometry" />
        </mxCell>
        <mxCell id="I74rr0ujYwUD2AHIowav-17" value="" style="edgeStyle=entityRelationEdgeStyle;startArrow=blockThin;endArrow=none;segment=10;curved=1;strokeColor=#12AAB5;startFill=1;exitX=1.022;exitY=0.696;exitDx=0;exitDy=0;exitPerimeter=0;" parent="1" source="I74rr0ujYwUD2AHIowav-2" target="I74rr0ujYwUD2AHIowav-16" edge="1">
          <mxGeometry relative="1" as="geometry">
            <mxPoint x="348.9899999999999" y="1842.21" as="sourcePoint" />
          </mxGeometry>
        </mxCell>
        <mxCell id="I74rr0ujYwUD2AHIowav-18" value="&lt;font color=&quot;#ffffff&quot;&gt;&lt;span style=&quot;font-size: 12px&quot;&gt;&amp;lt;prometheus_msgs::DroneState&amp;gt;(&quot;/prometheus/drone_state&quot;, 10, drone_state_cb)&lt;/span&gt;&lt;/font&gt;" style="whiteSpace=wrap;html=1;rounded=1;arcSize=50;align=center;verticalAlign=middle;strokeWidth=1;autosize=1;spacing=4;treeFolding=1;treeMoving=1;newEdgeStyle={&quot;edgeStyle&quot;:&quot;entityRelationEdgeStyle&quot;,&quot;startArrow&quot;:&quot;none&quot;,&quot;endArrow&quot;:&quot;none&quot;,&quot;segment&quot;:10,&quot;curved&quot;:1};shadow=0;sketch=0;gradientColor=none;strokeColor=none;fillColor=#61C6CE;" parent="1" vertex="1">
          <mxGeometry x="610" y="1769" width="480" height="30" as="geometry" />
        </mxCell>
        <mxCell id="I74rr0ujYwUD2AHIowav-19" style="edgeStyle=orthogonalEdgeStyle;curved=1;orthogonalLoop=1;jettySize=auto;html=1;startArrow=none;startFill=0;endArrow=none;endFill=0;strokeColor=#12AAB5;entryX=0;entryY=0.5;entryDx=0;entryDy=0;exitX=1;exitY=0.5;exitDx=0;exitDy=0;" parent="1" source="I74rr0ujYwUD2AHIowav-12" target="I74rr0ujYwUD2AHIowav-14" edge="1">
          <mxGeometry relative="1" as="geometry">
            <mxPoint x="590" y="1804" as="sourcePoint" />
            <mxPoint x="615" y="1804" as="targetPoint" />
          </mxGeometry>
        </mxCell>
        <mxCell id="I74rr0ujYwUD2AHIowav-20" style="edgeStyle=orthogonalEdgeStyle;curved=1;orthogonalLoop=1;jettySize=auto;html=1;startArrow=none;startFill=0;endArrow=none;endFill=0;strokeColor=#1699D3;" parent="1" source="I74rr0ujYwUD2AHIowav-21" target="I74rr0ujYwUD2AHIowav-23" edge="1">
          <mxGeometry relative="1" as="geometry" />
        </mxCell>
        <mxCell id="I74rr0ujYwUD2AHIowav-21" value="&lt;font color=&quot;#ffffff&quot;&gt;&lt;span style=&quot;font-size: 12px&quot;&gt;rivz_ref_pose_pub&lt;br&gt;发布参考位姿 RVIZ显示&lt;/span&gt;&lt;/font&gt;" style="whiteSpace=wrap;html=1;rounded=1;arcSize=50;align=center;verticalAlign=middle;strokeWidth=1;autosize=1;spacing=4;treeFolding=1;treeMoving=1;newEdgeStyle={&quot;edgeStyle&quot;:&quot;entityRelationEdgeStyle&quot;,&quot;startArrow&quot;:&quot;none&quot;,&quot;endArrow&quot;:&quot;none&quot;,&quot;segment&quot;:10,&quot;curved&quot;:1};shadow=0;sketch=0;gradientColor=none;strokeColor=none;fillColor=#1699D3;" parent="1" vertex="1">
          <mxGeometry x="390" y="1809" width="170" height="40" as="geometry" />
        </mxCell>
        <mxCell id="I74rr0ujYwUD2AHIowav-22" value="" style="edgeStyle=entityRelationEdgeStyle;startArrow=none;endArrow=blockThin;segment=10;curved=1;exitX=1.012;exitY=0.799;exitDx=0;exitDy=0;endFill=1;strokeColor=#1699D3;exitPerimeter=0;" parent="1" source="I74rr0ujYwUD2AHIowav-2" target="I74rr0ujYwUD2AHIowav-21" edge="1">
          <mxGeometry relative="1" as="geometry">
            <mxPoint x="350.01" y="1794" as="sourcePoint" />
          </mxGeometry>
        </mxCell>
        <mxCell id="I74rr0ujYwUD2AHIowav-23" value="&lt;font color=&quot;#ffffff&quot;&gt;&lt;span style=&quot;font-size: 12px&quot;&gt;&amp;lt;geometry_msgs::PoseStamped&amp;gt;(&quot;/prometheus/control/ref_pose_rviz&quot;, 10)&lt;/span&gt;&lt;/font&gt;" style="whiteSpace=wrap;html=1;rounded=1;arcSize=50;align=center;verticalAlign=middle;strokeWidth=1;autosize=1;spacing=4;treeFolding=1;treeMoving=1;newEdgeStyle={&quot;edgeStyle&quot;:&quot;entityRelationEdgeStyle&quot;,&quot;startArrow&quot;:&quot;none&quot;,&quot;endArrow&quot;:&quot;none&quot;,&quot;segment&quot;:10,&quot;curved&quot;:1};shadow=0;sketch=0;gradientColor=none;strokeColor=none;fillColor=#64BBE2;" parent="1" vertex="1">
          <mxGeometry x="610" y="1814" width="440" height="30" as="geometry" />
        </mxCell>
        <mxCell id="I74rr0ujYwUD2AHIowav-24" style="edgeStyle=orthogonalEdgeStyle;curved=1;orthogonalLoop=1;jettySize=auto;html=1;startArrow=none;startFill=0;endArrow=none;endFill=0;strokeColor=#1699D3;" parent="1" source="I74rr0ujYwUD2AHIowav-25" target="I74rr0ujYwUD2AHIowav-27" edge="1">
          <mxGeometry relative="1" as="geometry" />
        </mxCell>
        <mxCell id="I74rr0ujYwUD2AHIowav-25" value="&lt;font color=&quot;#ffffff&quot;&gt;&lt;span style=&quot;font-size: 12px&quot;&gt;message_pub 发布用于&lt;br&gt;地面站显示的提示消息&lt;/span&gt;&lt;/font&gt;" style="whiteSpace=wrap;html=1;rounded=1;arcSize=50;align=center;verticalAlign=middle;strokeWidth=1;autosize=1;spacing=4;treeFolding=1;treeMoving=1;newEdgeStyle={&quot;edgeStyle&quot;:&quot;entityRelationEdgeStyle&quot;,&quot;startArrow&quot;:&quot;none&quot;,&quot;endArrow&quot;:&quot;none&quot;,&quot;segment&quot;:10,&quot;curved&quot;:1};shadow=0;sketch=0;gradientColor=none;strokeColor=none;fillColor=#1699D3;" parent="1" vertex="1">
          <mxGeometry x="390" y="1854" width="170" height="40" as="geometry" />
        </mxCell>
        <mxCell id="I74rr0ujYwUD2AHIowav-26" value="" style="edgeStyle=entityRelationEdgeStyle;startArrow=none;endArrow=blockThin;segment=10;curved=1;exitX=1.01;exitY=0.936;exitDx=0;exitDy=0;endFill=1;strokeColor=#1699D3;exitPerimeter=0;" parent="1" source="I74rr0ujYwUD2AHIowav-2" target="I74rr0ujYwUD2AHIowav-25" edge="1">
          <mxGeometry relative="1" as="geometry">
            <mxPoint x="339.9999999999998" y="1794" as="sourcePoint" />
          </mxGeometry>
        </mxCell>
        <mxCell id="I74rr0ujYwUD2AHIowav-27" value="&lt;font color=&quot;#ffffff&quot;&gt;&lt;span style=&quot;font-size: 12px&quot;&gt;&amp;lt;prometheus_msgs::Message&amp;gt;(&quot;/prometheus/message/main&quot;, 10)&lt;/span&gt;&lt;/font&gt;" style="whiteSpace=wrap;html=1;rounded=1;arcSize=50;align=center;verticalAlign=middle;strokeWidth=1;autosize=1;spacing=4;treeFolding=1;treeMoving=1;newEdgeStyle={&quot;edgeStyle&quot;:&quot;entityRelationEdgeStyle&quot;,&quot;startArrow&quot;:&quot;none&quot;,&quot;endArrow&quot;:&quot;none&quot;,&quot;segment&quot;:10,&quot;curved&quot;:1};shadow=0;sketch=0;gradientColor=none;strokeColor=none;fillColor=#64BBE2;" parent="1" vertex="1">
          <mxGeometry x="610" y="1859" width="390" height="30" as="geometry" />
        </mxCell>
        <mxCell id="I74rr0ujYwUD2AHIowav-28" style="edgeStyle=orthogonalEdgeStyle;curved=1;orthogonalLoop=1;jettySize=auto;html=1;entryX=0;entryY=0.5;entryDx=0;entryDy=0;startArrow=none;startFill=0;endArrow=none;endFill=0;strokeColor=#2F5B7C;" parent="1" source="I74rr0ujYwUD2AHIowav-1" target="I74rr0ujYwUD2AHIowav-29" edge="1">
          <mxGeometry relative="1" as="geometry">
            <mxPoint x="170" y="1894" as="sourcePoint" />
          </mxGeometry>
        </mxCell>
        <mxCell id="I74rr0ujYwUD2AHIowav-29" value="&lt;font color=&quot;#ffffff&quot;&gt;command_to_mavros _command_to_mavros&lt;/font&gt;&lt;br&gt;&lt;font color=&quot;#ffffff&quot;&gt;&lt;span style=&quot;font-size: 12px&quot;&gt;用于与mavros通讯的类，通过mavros发送控制指令至飞控&lt;br&gt;【本程序-&amp;gt;mavros-&amp;gt;飞控】&lt;/span&gt;&lt;/font&gt;" style="whiteSpace=wrap;html=1;rounded=0;arcSize=50;align=center;verticalAlign=middle;strokeWidth=1;autosize=1;spacing=4;treeFolding=1;treeMoving=1;newEdgeStyle={&quot;edgeStyle&quot;:&quot;entityRelationEdgeStyle&quot;,&quot;startArrow&quot;:&quot;none&quot;,&quot;endArrow&quot;:&quot;none&quot;,&quot;segment&quot;:10,&quot;curved&quot;:1};shadow=0;sketch=0;gradientColor=none;strokeColor=none;fillColor=#2F5B7C;" parent="1" vertex="1">
          <mxGeometry x="230" y="1944" width="350" height="50" as="geometry" />
        </mxCell>
        <mxCell id="I74rr0ujYwUD2AHIowav-31" value="&lt;font color=&quot;#ffffff&quot;&gt;&lt;span style=&quot;font-size: 12px&quot;&gt;_command_to_mavros.send_pos_setpoint(state_sp, yaw_sp)&lt;/span&gt;&lt;/font&gt;" style="whiteSpace=wrap;html=1;rounded=0;arcSize=50;align=center;verticalAlign=middle;strokeWidth=1;autosize=1;spacing=4;treeFolding=1;treeMoving=1;newEdgeStyle={&quot;edgeStyle&quot;:&quot;entityRelationEdgeStyle&quot;,&quot;startArrow&quot;:&quot;none&quot;,&quot;endArrow&quot;:&quot;none&quot;,&quot;segment&quot;:10,&quot;curved&quot;:1};shadow=0;sketch=0;gradientColor=none;strokeColor=none;fillColor=#2F5B7C;" parent="1" vertex="1">
          <mxGeometry x="220" y="2024" width="370" height="30" as="geometry" />
        </mxCell>
        <mxCell id="I74rr0ujYwUD2AHIowav-34" value="&lt;font color=&quot;#ffffff&quot;&gt;ternimal_control&lt;/font&gt;" style="ellipse;whiteSpace=wrap;html=1;align=center;newEdgeStyle={&quot;edgeStyle&quot;:&quot;entityRelationEdgeStyle&quot;,&quot;startArrow&quot;:&quot;none&quot;,&quot;endArrow&quot;:&quot;none&quot;,&quot;segment&quot;:10,&quot;curved&quot;:1};treeFolding=1;treeMoving=1;strokeColor=none;sketch=0;shadow=0;fillColor=#EA6B66;" parent="1" vertex="1">
          <mxGeometry x="76.12" y="2224" width="125" height="40" as="geometry" />
        </mxCell>
        <mxCell id="I74rr0ujYwUD2AHIowav-35" value="&lt;font color=&quot;#ffffff&quot;&gt;sub and pub&lt;/font&gt;" style="whiteSpace=wrap;html=1;rounded=0;arcSize=50;align=center;verticalAlign=middle;strokeWidth=1;autosize=1;spacing=4;treeFolding=1;treeMoving=1;newEdgeStyle={&quot;edgeStyle&quot;:&quot;entityRelationEdgeStyle&quot;,&quot;startArrow&quot;:&quot;none&quot;,&quot;endArrow&quot;:&quot;none&quot;,&quot;segment&quot;:10,&quot;curved&quot;:1};shadow=0;sketch=0;gradientColor=none;strokeColor=none;fillColor=#2F5B7C;" parent="1" vertex="1">
          <mxGeometry x="236.12" y="2119" width="110" height="30" as="geometry" />
        </mxCell>
        <mxCell id="I74rr0ujYwUD2AHIowav-36" value="" style="edgeStyle=entityRelationEdgeStyle;startArrow=none;endArrow=none;segment=10;curved=1;entryX=0;entryY=0.5;entryDx=0;entryDy=0;strokeColor=#2F5B7C;exitX=0.995;exitY=0.453;exitDx=0;exitDy=0;exitPerimeter=0;" parent="1" source="I74rr0ujYwUD2AHIowav-34" target="I74rr0ujYwUD2AHIowav-35" edge="1">
          <mxGeometry relative="1" as="geometry">
            <mxPoint x="201.12" y="2244" as="sourcePoint" />
            <mxPoint x="127.12" y="1906.6400000000003" as="targetPoint" />
          </mxGeometry>
        </mxCell>
        <mxCell id="I74rr0ujYwUD2AHIowav-37" value="&lt;font color=&quot;#ffffff&quot;&gt;&lt;span style=&quot;font-size: 12px&quot;&gt;move_pub&lt;/span&gt;&lt;br&gt;&lt;span style=&quot;font-size: 12px&quot;&gt;发布控制指令&lt;/span&gt;&lt;br&gt;&lt;/font&gt;" style="whiteSpace=wrap;html=1;rounded=1;arcSize=50;align=center;verticalAlign=middle;strokeWidth=1;autosize=1;spacing=4;treeFolding=1;treeMoving=1;newEdgeStyle={&quot;edgeStyle&quot;:&quot;entityRelationEdgeStyle&quot;,&quot;startArrow&quot;:&quot;none&quot;,&quot;endArrow&quot;:&quot;none&quot;,&quot;segment&quot;:10,&quot;curved&quot;:1};shadow=0;sketch=0;gradientColor=none;strokeColor=none;fillColor=#1699D3;" parent="1" vertex="1">
          <mxGeometry x="416.12" y="2083.9999999999995" width="110" height="40" as="geometry" />
        </mxCell>
        <mxCell id="I74rr0ujYwUD2AHIowav-38" value="" style="edgeStyle=entityRelationEdgeStyle;startArrow=none;endArrow=blockThin;segment=10;curved=1;exitX=0.998;exitY=0.392;exitDx=0;exitDy=0;endFill=1;strokeColor=#1699D3;exitPerimeter=0;" parent="1" source="I74rr0ujYwUD2AHIowav-35" target="I74rr0ujYwUD2AHIowav-37" edge="1">
          <mxGeometry relative="1" as="geometry">
            <mxPoint x="346.11999999999995" y="2064" as="sourcePoint" />
          </mxGeometry>
        </mxCell>
        <mxCell id="I74rr0ujYwUD2AHIowav-41" style="edgeStyle=orthogonalEdgeStyle;curved=1;orthogonalLoop=1;jettySize=auto;html=1;startArrow=none;startFill=0;endArrow=none;endFill=0;strokeColor=#1699D3;exitX=1;exitY=0.5;exitDx=0;exitDy=0;" parent="1" source="I74rr0ujYwUD2AHIowav-37" target="I74rr0ujYwUD2AHIowav-42" edge="1">
          <mxGeometry relative="1" as="geometry">
            <mxPoint x="536.12" y="2104" as="sourcePoint" />
          </mxGeometry>
        </mxCell>
        <mxCell id="I74rr0ujYwUD2AHIowav-42" value="&lt;font color=&quot;#ffffff&quot;&gt;&lt;span style=&quot;font-size: 12px&quot;&gt;&amp;lt;prometheus_msgs::ControlCommand&amp;gt;(&quot;/prometheus/control_command&quot;, 10)&lt;/span&gt;&lt;/font&gt;" style="whiteSpace=wrap;html=1;rounded=1;arcSize=50;align=center;verticalAlign=middle;strokeWidth=1;autosize=1;spacing=4;treeFolding=1;treeMoving=1;newEdgeStyle={&quot;edgeStyle&quot;:&quot;entityRelationEdgeStyle&quot;,&quot;startArrow&quot;:&quot;none&quot;,&quot;endArrow&quot;:&quot;none&quot;,&quot;segment&quot;:10,&quot;curved&quot;:1};shadow=0;sketch=0;gradientColor=none;strokeColor=none;fillColor=#64BBE2;" parent="1" vertex="1">
          <mxGeometry x="596.12" y="2089" width="450" height="30" as="geometry" />
        </mxCell>
        <mxCell id="I74rr0ujYwUD2AHIowav-43" value="&lt;font color=&quot;#ffffff&quot;&gt;&lt;span style=&quot;font-size: 12px&quot;&gt;ref_trajectory_pub&lt;br&gt;&lt;/span&gt;&lt;/font&gt;&lt;span style=&quot;color: rgb(255 , 255 , 255)&quot;&gt;发布参考轨迹&amp;nbsp;&lt;/span&gt;&lt;font color=&quot;#ffffff&quot;&gt;&lt;br&gt;&lt;/font&gt;" style="whiteSpace=wrap;html=1;rounded=1;arcSize=50;align=center;verticalAlign=middle;strokeWidth=1;autosize=1;spacing=4;treeFolding=1;treeMoving=1;newEdgeStyle={&quot;edgeStyle&quot;:&quot;entityRelationEdgeStyle&quot;,&quot;startArrow&quot;:&quot;none&quot;,&quot;endArrow&quot;:&quot;none&quot;,&quot;segment&quot;:10,&quot;curved&quot;:1};shadow=0;sketch=0;gradientColor=none;strokeColor=none;fillColor=#1699D3;" parent="1" vertex="1">
          <mxGeometry x="416.12" y="2133.9999999999995" width="140" height="40" as="geometry" />
        </mxCell>
        <mxCell id="I74rr0ujYwUD2AHIowav-44" value="" style="edgeStyle=entityRelationEdgeStyle;startArrow=none;endArrow=blockThin;segment=10;curved=1;exitX=0.99;exitY=0.594;exitDx=0;exitDy=0;endFill=1;strokeColor=#1699D3;exitPerimeter=0;" parent="1" source="I74rr0ujYwUD2AHIowav-35" target="I74rr0ujYwUD2AHIowav-43" edge="1">
          <mxGeometry relative="1" as="geometry">
            <mxPoint x="356.1200000000001" y="2185.7599999999998" as="sourcePoint" />
          </mxGeometry>
        </mxCell>
        <mxCell id="I74rr0ujYwUD2AHIowav-45" style="edgeStyle=orthogonalEdgeStyle;curved=1;orthogonalLoop=1;jettySize=auto;html=1;startArrow=none;startFill=0;endArrow=none;endFill=0;strokeColor=#1699D3;exitX=1;exitY=0.5;exitDx=0;exitDy=0;" parent="1" source="I74rr0ujYwUD2AHIowav-43" target="I74rr0ujYwUD2AHIowav-46" edge="1">
          <mxGeometry relative="1" as="geometry">
            <mxPoint x="566.12" y="2153.9999999999995" as="sourcePoint" />
          </mxGeometry>
        </mxCell>
        <mxCell id="I74rr0ujYwUD2AHIowav-46" value="&lt;font color=&quot;#ffffff&quot;&gt;&lt;span style=&quot;font-size: 12px&quot;&gt;&amp;lt;nav_msgs::Path&amp;gt;(&quot;/prometheus/reference_trajectory&quot;, 10)&lt;/span&gt;&lt;/font&gt;" style="whiteSpace=wrap;html=1;rounded=1;arcSize=50;align=center;verticalAlign=middle;strokeWidth=1;autosize=1;spacing=4;treeFolding=1;treeMoving=1;newEdgeStyle={&quot;edgeStyle&quot;:&quot;entityRelationEdgeStyle&quot;,&quot;startArrow&quot;:&quot;none&quot;,&quot;endArrow&quot;:&quot;none&quot;,&quot;segment&quot;:10,&quot;curved&quot;:1};shadow=0;sketch=0;gradientColor=none;strokeColor=none;fillColor=#64BBE2;" parent="1" vertex="1">
          <mxGeometry x="596.12" y="2139" width="350" height="30" as="geometry" />
        </mxCell>
        <mxCell id="I74rr0ujYwUD2AHIowav-47" value="&lt;div style=&quot;text-align: center&quot;&gt;&lt;span style=&quot;color: rgb(255 , 255 , 255) ; text-align: left&quot;&gt;ControlCommand&lt;/span&gt;&lt;br&gt;&lt;/div&gt;&lt;font color=&quot;#ffffff&quot;&gt;&lt;span style=&quot;font-size: 12px&quot;&gt;&lt;div&gt;std_msgs/Header header&lt;br&gt;&lt;/div&gt;&lt;div&gt;uint32 Command_ID&lt;/div&gt;&lt;div&gt;string source&lt;/div&gt;&lt;div&gt;uint8 Mode&lt;/div&gt;&lt;div&gt;uint8 Idle=0&lt;/div&gt;&lt;div&gt;uint8 Takeoff=1&lt;/div&gt;&lt;div&gt;uint8 Hold=2&lt;/div&gt;&lt;div&gt;uint8 Land=3&lt;/div&gt;&lt;div&gt;uint8 Move=4&lt;/div&gt;&lt;div&gt;uint8 Disarm=5&lt;/div&gt;&lt;div&gt;uint8 User_Mode1=6&lt;/div&gt;&lt;div&gt;uint8 User_Mode2=7&lt;/div&gt;&lt;div&gt;PositionReference Reference_State&lt;/div&gt;&lt;/span&gt;&lt;/font&gt;" style="whiteSpace=wrap;html=1;rounded=0;arcSize=50;align=left;verticalAlign=bottom;strokeWidth=1;autosize=1;spacing=4;treeFolding=1;treeMoving=1;newEdgeStyle={&quot;edgeStyle&quot;:&quot;entityRelationEdgeStyle&quot;,&quot;startArrow&quot;:&quot;none&quot;,&quot;endArrow&quot;:&quot;none&quot;,&quot;segment&quot;:10,&quot;curved&quot;:1};shadow=0;sketch=0;gradientColor=none;strokeColor=none;fillColor=#A680B8;" parent="1" vertex="1">
          <mxGeometry x="1095" y="2004" width="200" height="200" as="geometry" />
        </mxCell>
        <mxCell id="I74rr0ujYwUD2AHIowav-49" style="edgeStyle=orthogonalEdgeStyle;curved=1;orthogonalLoop=1;jettySize=auto;html=1;startArrow=none;startFill=0;endArrow=none;endFill=0;exitX=0.997;exitY=0.501;exitDx=0;exitDy=0;exitPerimeter=0;strokeColor=#A680B8;" parent="1" source="I74rr0ujYwUD2AHIowav-42" target="I74rr0ujYwUD2AHIowav-47" edge="1">
          <mxGeometry relative="1" as="geometry">
            <mxPoint x="1054.9999999999998" y="2103.93" as="sourcePoint" />
            <mxPoint x="1104.9999999999998" y="2103.93" as="targetPoint" />
            <Array as="points" />
          </mxGeometry>
        </mxCell>
        <mxCell id="I74rr0ujYwUD2AHIowav-50" value="&lt;font color=&quot;#ffffff&quot;&gt;main_loop1&lt;br&gt;命令控制&lt;br&gt;&lt;/font&gt;" style="whiteSpace=wrap;html=1;rounded=0;arcSize=50;align=center;verticalAlign=middle;strokeWidth=1;autosize=1;spacing=4;treeFolding=1;treeMoving=1;newEdgeStyle={&quot;edgeStyle&quot;:&quot;entityRelationEdgeStyle&quot;,&quot;startArrow&quot;:&quot;none&quot;,&quot;endArrow&quot;:&quot;none&quot;,&quot;segment&quot;:10,&quot;curved&quot;:1};shadow=0;sketch=0;gradientColor=none;strokeColor=none;fillColor=#2F5B7C;" parent="1" vertex="1">
          <mxGeometry x="236.12" y="2204" width="100" height="40" as="geometry" />
        </mxCell>
        <mxCell id="I74rr0ujYwUD2AHIowav-51" value="" style="edgeStyle=entityRelationEdgeStyle;startArrow=none;endArrow=none;segment=10;curved=1;entryX=0;entryY=0.5;entryDx=0;entryDy=0;strokeColor=#2F5B7C;exitX=0.984;exitY=0.621;exitDx=0;exitDy=0;exitPerimeter=0;" parent="1" source="I74rr0ujYwUD2AHIowav-34" target="I74rr0ujYwUD2AHIowav-50" edge="1">
          <mxGeometry relative="1" as="geometry">
            <mxPoint x="213.305" y="2332.12" as="sourcePoint" />
            <mxPoint x="139.93" y="1996.6400000000003" as="targetPoint" />
          </mxGeometry>
        </mxCell>
        <mxCell id="I74rr0ujYwUD2AHIowav-52" value="&lt;font color=&quot;#ffffff&quot;&gt;main_loop2&lt;br&gt;键盘控制&lt;br&gt;&lt;/font&gt;" style="whiteSpace=wrap;html=1;rounded=0;arcSize=50;align=center;verticalAlign=middle;strokeWidth=1;autosize=1;spacing=4;treeFolding=1;treeMoving=1;newEdgeStyle={&quot;edgeStyle&quot;:&quot;entityRelationEdgeStyle&quot;,&quot;startArrow&quot;:&quot;none&quot;,&quot;endArrow&quot;:&quot;none&quot;,&quot;segment&quot;:10,&quot;curved&quot;:1};shadow=0;sketch=0;gradientColor=none;strokeColor=none;fillColor=#2F5B7C;" parent="1" vertex="1">
          <mxGeometry x="236.75" y="2254" width="100" height="40" as="geometry" />
        </mxCell>
        <mxCell id="I74rr0ujYwUD2AHIowav-53" value="" style="edgeStyle=entityRelationEdgeStyle;startArrow=none;endArrow=none;segment=10;curved=1;entryX=0;entryY=0.5;entryDx=0;entryDy=0;strokeColor=#2F5B7C;exitX=0.981;exitY=0.668;exitDx=0;exitDy=0;exitPerimeter=0;" parent="1" source="I74rr0ujYwUD2AHIowav-34" target="I74rr0ujYwUD2AHIowav-52" edge="1">
          <mxGeometry relative="1" as="geometry">
            <mxPoint x="201.12" y="2308.84" as="sourcePoint" />
            <mxPoint x="141.93" y="2056.6400000000003" as="targetPoint" />
          </mxGeometry>
        </mxCell>
        <mxCell id="I74rr0ujYwUD2AHIowav-54" style="edgeStyle=orthogonalEdgeStyle;curved=1;orthogonalLoop=1;jettySize=auto;html=1;startArrow=none;startFill=0;endArrow=blockThin;endFill=1;strokeColor=#2F5B7C;entryX=0.5;entryY=0;entryDx=0;entryDy=0;" parent="1" source="I74rr0ujYwUD2AHIowav-29" target="I74rr0ujYwUD2AHIowav-31" edge="1">
          <mxGeometry relative="1" as="geometry">
            <mxPoint x="430" y="2009" as="sourcePoint" />
            <mxPoint x="430" y="2049" as="targetPoint" />
          </mxGeometry>
        </mxCell>
        <mxCell id="I74rr0ujYwUD2AHIowav-58" style="edgeStyle=orthogonalEdgeStyle;rounded=0;orthogonalLoop=1;jettySize=auto;html=1;strokeColor=#97D077;" parent="1" source="I74rr0ujYwUD2AHIowav-55" target="I74rr0ujYwUD2AHIowav-57" edge="1">
          <mxGeometry relative="1" as="geometry" />
        </mxCell>
        <mxCell id="I74rr0ujYwUD2AHIowav-55" value="&lt;font color=&quot;#ffffff&quot;&gt;&lt;span style=&quot;font-size: 12px&quot;&gt;pos_controller_cascade_PID.h&lt;/span&gt;&lt;/font&gt;" style="whiteSpace=wrap;html=1;rounded=0;arcSize=50;align=center;verticalAlign=middle;strokeWidth=1;autosize=1;spacing=4;treeFolding=1;treeMoving=1;newEdgeStyle={&quot;edgeStyle&quot;:&quot;entityRelationEdgeStyle&quot;,&quot;startArrow&quot;:&quot;none&quot;,&quot;endArrow&quot;:&quot;none&quot;,&quot;segment&quot;:10,&quot;curved&quot;:1};shadow=0;sketch=0;gradientColor=none;strokeColor=none;fillColor=#97D077;" parent="1" vertex="1">
          <mxGeometry x="70" y="4260" width="200" height="30" as="geometry" />
        </mxCell>
        <mxCell id="I74rr0ujYwUD2AHIowav-56" style="edgeStyle=orthogonalEdgeStyle;curved=1;orthogonalLoop=1;jettySize=auto;html=1;entryX=1;entryY=0.5;entryDx=0;entryDy=0;startArrow=none;startFill=0;endArrow=none;endFill=0;dashed=1;strokeColor=#97D077;" parent="1" source="em-1HlqMXCPZLSbGFmnV-1957" target="I74rr0ujYwUD2AHIowav-55" edge="1">
          <mxGeometry relative="1" as="geometry">
            <mxPoint x="226.14999999999986" y="4400" as="sourcePoint" />
            <mxPoint x="307.0999999999999" y="4468.639999999999" as="targetPoint" />
          </mxGeometry>
        </mxCell>
        <mxCell id="I74rr0ujYwUD2AHIowav-57" value="&lt;font color=&quot;#ffffff&quot;&gt;&lt;span style=&quot;font-size: 12px&quot;&gt;pos_controller()&lt;/span&gt;&lt;/font&gt;" style="whiteSpace=wrap;html=1;rounded=0;arcSize=50;align=center;verticalAlign=middle;strokeWidth=1;autosize=1;spacing=4;treeFolding=1;treeMoving=1;newEdgeStyle={&quot;edgeStyle&quot;:&quot;entityRelationEdgeStyle&quot;,&quot;startArrow&quot;:&quot;none&quot;,&quot;endArrow&quot;:&quot;none&quot;,&quot;segment&quot;:10,&quot;curved&quot;:1};shadow=0;sketch=0;gradientColor=none;strokeColor=none;fillColor=#97D077;" parent="1" vertex="1">
          <mxGeometry x="110" y="4305" width="120" height="30" as="geometry" />
        </mxCell>
        <mxCell id="I74rr0ujYwUD2AHIowav-59" value="&lt;font color=&quot;#ffffff&quot;&gt;&lt;span style=&quot;font-size: 12px&quot;&gt;send_attitude_setpoint()&lt;/span&gt;&lt;/font&gt;" style="whiteSpace=wrap;html=1;rounded=0;arcSize=50;align=center;verticalAlign=middle;strokeWidth=1;autosize=1;spacing=4;treeFolding=1;treeMoving=1;newEdgeStyle={&quot;edgeStyle&quot;:&quot;entityRelationEdgeStyle&quot;,&quot;startArrow&quot;:&quot;none&quot;,&quot;endArrow&quot;:&quot;none&quot;,&quot;segment&quot;:10,&quot;curved&quot;:1};shadow=0;sketch=0;gradientColor=none;strokeColor=none;fillColor=#97D077;" parent="1" vertex="1">
          <mxGeometry x="1390" y="1789" width="170" height="30" as="geometry" />
        </mxCell>
        <mxCell id="I74rr0ujYwUD2AHIowav-61" value="&lt;font color=&quot;#ffffff&quot;&gt;&lt;span style=&quot;font-size: 12px&quot;&gt;ThrottleToAttitude()&lt;/span&gt;&lt;/font&gt;" style="whiteSpace=wrap;html=1;rounded=0;arcSize=50;align=center;verticalAlign=middle;strokeWidth=1;autosize=1;spacing=4;treeFolding=1;treeMoving=1;newEdgeStyle={&quot;edgeStyle&quot;:&quot;entityRelationEdgeStyle&quot;,&quot;startArrow&quot;:&quot;none&quot;,&quot;endArrow&quot;:&quot;none&quot;,&quot;segment&quot;:10,&quot;curved&quot;:1};shadow=0;sketch=0;gradientColor=none;strokeColor=none;fillColor=#97D077;" parent="1" vertex="1">
          <mxGeometry x="322.5" y="4300" width="140" height="30" as="geometry" />
        </mxCell>
        <mxCell id="I74rr0ujYwUD2AHIowav-63" style="edgeStyle=orthogonalEdgeStyle;curved=1;orthogonalLoop=1;jettySize=auto;html=1;startArrow=none;startFill=0;endArrow=none;endFill=0;exitX=1;exitY=0.75;exitDx=0;exitDy=0;dashed=1;strokeColor=#1699D3;" parent="1" source="I74rr0ujYwUD2AHIowav-9" target="I74rr0ujYwUD2AHIowav-42" edge="1">
          <mxGeometry relative="1" as="geometry">
            <mxPoint x="656.1200000000001" y="1953.9999999999995" as="sourcePoint" />
            <mxPoint x="737.0699999999997" y="2022.6399999999994" as="targetPoint" />
            <Array as="points">
              <mxPoint x="590" y="1704" />
              <mxPoint x="590" y="1914" />
              <mxPoint x="737" y="1914" />
            </Array>
          </mxGeometry>
        </mxCell>
        <mxCell id="JRAyBpDbyeD6J749J3WN-1" value="&lt;font color=&quot;#ffffff&quot;&gt;color_line&lt;/font&gt;" style="ellipse;whiteSpace=wrap;html=1;align=center;newEdgeStyle={&quot;edgeStyle&quot;:&quot;entityRelationEdgeStyle&quot;,&quot;startArrow&quot;:&quot;none&quot;,&quot;endArrow&quot;:&quot;none&quot;,&quot;segment&quot;:10,&quot;curved&quot;:1};treeFolding=1;treeMoving=1;strokeColor=none;sketch=0;shadow=0;fillColor=#EA6B66;" parent="1" vertex="1">
          <mxGeometry x="60" y="2465" width="125" height="40" as="geometry" />
        </mxCell>
        <mxCell id="JRAyBpDbyeD6J749J3WN-2" value="&lt;font color=&quot;#ffffff&quot;&gt;sub and pub&lt;/font&gt;" style="whiteSpace=wrap;html=1;rounded=0;arcSize=50;align=center;verticalAlign=middle;strokeWidth=1;autosize=1;spacing=4;treeFolding=1;treeMoving=1;newEdgeStyle={&quot;edgeStyle&quot;:&quot;entityRelationEdgeStyle&quot;,&quot;startArrow&quot;:&quot;none&quot;,&quot;endArrow&quot;:&quot;none&quot;,&quot;segment&quot;:10,&quot;curved&quot;:1};shadow=0;sketch=0;gradientColor=none;strokeColor=none;fillColor=#2F5B7C;" parent="1" vertex="1">
          <mxGeometry x="230.63" y="2470" width="110" height="30" as="geometry" />
        </mxCell>
        <mxCell id="JRAyBpDbyeD6J749J3WN-3" value="" style="edgeStyle=entityRelationEdgeStyle;startArrow=none;endArrow=none;segment=10;curved=1;entryX=0;entryY=0.5;entryDx=0;entryDy=0;strokeColor=#2F5B7C;" parent="1" source="JRAyBpDbyeD6J749J3WN-1" target="JRAyBpDbyeD6J749J3WN-2" edge="1">
          <mxGeometry relative="1" as="geometry">
            <mxPoint x="185.005" y="2588.12" as="sourcePoint" />
            <mxPoint x="111.63" y="2252.6400000000003" as="targetPoint" />
          </mxGeometry>
        </mxCell>
        <mxCell id="JRAyBpDbyeD6J749J3WN-7" style="edgeStyle=orthogonalEdgeStyle;rounded=0;orthogonalLoop=1;jettySize=auto;html=1;endArrow=none;endFill=0;strokeColor=#12AAB5;" parent="1" source="JRAyBpDbyeD6J749J3WN-4" target="JRAyBpDbyeD6J749J3WN-6" edge="1">
          <mxGeometry relative="1" as="geometry" />
        </mxCell>
        <mxCell id="JRAyBpDbyeD6J749J3WN-4" value="&lt;font color=&quot;#ffffff&quot;&gt;color_line_sub&amp;nbsp;订阅所识别线&lt;br&gt;与相机中心轴的偏移角度&lt;/font&gt;" style="whiteSpace=wrap;html=1;rounded=1;arcSize=50;align=center;verticalAlign=middle;strokeWidth=1;autosize=1;spacing=4;treeFolding=1;treeMoving=1;newEdgeStyle={&quot;edgeStyle&quot;:&quot;entityRelationEdgeStyle&quot;,&quot;startArrow&quot;:&quot;none&quot;,&quot;endArrow&quot;:&quot;none&quot;,&quot;segment&quot;:10,&quot;curved&quot;:1};shadow=0;sketch=0;gradientColor=none;strokeColor=none;fillColor=#12AAB5;" parent="1" vertex="1">
          <mxGeometry x="390" y="2400" width="190" height="40" as="geometry" />
        </mxCell>
        <mxCell id="JRAyBpDbyeD6J749J3WN-5" value="" style="edgeStyle=entityRelationEdgeStyle;startArrow=blockThin;endArrow=none;segment=10;curved=1;strokeColor=#12AAB5;exitX=1;exitY=0.149;exitDx=0;exitDy=0;startFill=1;exitPerimeter=0;" parent="1" source="JRAyBpDbyeD6J749J3WN-2" target="JRAyBpDbyeD6J749J3WN-4" edge="1">
          <mxGeometry relative="1" as="geometry">
            <mxPoint x="341.5400000000001" y="2484.2" as="sourcePoint" />
          </mxGeometry>
        </mxCell>
        <mxCell id="JRAyBpDbyeD6J749J3WN-6" value="&lt;font color=&quot;#ffffff&quot;&gt;&amp;lt;geometry_msgs::Pose&amp;gt;(&quot;/prometheus/object_detection/color_line_angle&quot;, 10, color_line_cb)&lt;/font&gt;" style="whiteSpace=wrap;html=1;rounded=1;arcSize=50;align=center;verticalAlign=middle;strokeWidth=1;autosize=1;spacing=4;treeFolding=1;treeMoving=1;newEdgeStyle={&quot;edgeStyle&quot;:&quot;entityRelationEdgeStyle&quot;,&quot;startArrow&quot;:&quot;none&quot;,&quot;endArrow&quot;:&quot;none&quot;,&quot;segment&quot;:10,&quot;curved&quot;:1};shadow=0;sketch=0;gradientColor=none;strokeColor=none;fillColor=#61C6CE;" parent="1" vertex="1">
          <mxGeometry x="600" y="2405" width="540" height="30" as="geometry" />
        </mxCell>
        <mxCell id="JRAyBpDbyeD6J749J3WN-12" style="edgeStyle=orthogonalEdgeStyle;rounded=0;orthogonalLoop=1;jettySize=auto;html=1;endArrow=none;endFill=0;strokeColor=#12AAB5;" parent="1" source="JRAyBpDbyeD6J749J3WN-8" target="JRAyBpDbyeD6J749J3WN-11" edge="1">
          <mxGeometry relative="1" as="geometry" />
        </mxCell>
        <mxCell id="JRAyBpDbyeD6J749J3WN-8" value="&lt;font color=&quot;#ffffff&quot;&gt;drone_state_sub&lt;/font&gt;" style="whiteSpace=wrap;html=1;rounded=1;arcSize=50;align=center;verticalAlign=middle;strokeWidth=1;autosize=1;spacing=4;treeFolding=1;treeMoving=1;newEdgeStyle={&quot;edgeStyle&quot;:&quot;entityRelationEdgeStyle&quot;,&quot;startArrow&quot;:&quot;none&quot;,&quot;endArrow&quot;:&quot;none&quot;,&quot;segment&quot;:10,&quot;curved&quot;:1};shadow=0;sketch=0;gradientColor=none;strokeColor=none;fillColor=#12AAB5;" parent="1" vertex="1">
          <mxGeometry x="390.22" y="2452.76" width="130" height="30" as="geometry" />
        </mxCell>
        <mxCell id="JRAyBpDbyeD6J749J3WN-9" value="" style="edgeStyle=entityRelationEdgeStyle;startArrow=blockThin;endArrow=none;segment=10;curved=1;strokeColor=#12AAB5;exitX=1;exitY=0.333;exitDx=0;exitDy=0;startFill=1;exitPerimeter=0;" parent="1" target="JRAyBpDbyeD6J749J3WN-8" edge="1">
          <mxGeometry relative="1" as="geometry">
            <mxPoint x="340.63" y="2480.9900000000002" as="sourcePoint" />
            <mxPoint x="380.00000000000006" y="2468.76" as="targetPoint" />
          </mxGeometry>
        </mxCell>
        <mxCell id="JRAyBpDbyeD6J749J3WN-11" value="&lt;font color=&quot;#ffffff&quot;&gt;&amp;lt;prometheus_msgs::DroneState&amp;gt;(&quot;/prometheus/drone_state&quot;, 10, drone_state_cb)&lt;/font&gt;" style="whiteSpace=wrap;html=1;rounded=1;arcSize=50;align=center;verticalAlign=middle;strokeWidth=1;autosize=1;spacing=4;treeFolding=1;treeMoving=1;newEdgeStyle={&quot;edgeStyle&quot;:&quot;entityRelationEdgeStyle&quot;,&quot;startArrow&quot;:&quot;none&quot;,&quot;endArrow&quot;:&quot;none&quot;,&quot;segment&quot;:10,&quot;curved&quot;:1};shadow=0;sketch=0;gradientColor=none;strokeColor=none;fillColor=#61C6CE;" parent="1" vertex="1">
          <mxGeometry x="550" y="2452.76" width="480" height="30" as="geometry" />
        </mxCell>
        <mxCell id="JRAyBpDbyeD6J749J3WN-16" style="edgeStyle=orthogonalEdgeStyle;rounded=0;orthogonalLoop=1;jettySize=auto;html=1;endArrow=none;endFill=0;strokeColor=#1699D3;" parent="1" source="JRAyBpDbyeD6J749J3WN-13" target="JRAyBpDbyeD6J749J3WN-15" edge="1">
          <mxGeometry relative="1" as="geometry" />
        </mxCell>
        <mxCell id="JRAyBpDbyeD6J749J3WN-13" value="&lt;font color=&quot;#ffffff&quot;&gt;command_pub&lt;br&gt;发送给控制模块&lt;br&gt;&lt;/font&gt;" style="whiteSpace=wrap;html=1;rounded=1;arcSize=50;align=center;verticalAlign=middle;strokeWidth=1;autosize=1;spacing=4;treeFolding=1;treeMoving=1;newEdgeStyle={&quot;edgeStyle&quot;:&quot;entityRelationEdgeStyle&quot;,&quot;startArrow&quot;:&quot;none&quot;,&quot;endArrow&quot;:&quot;none&quot;,&quot;segment&quot;:10,&quot;curved&quot;:1};shadow=0;sketch=0;gradientColor=none;strokeColor=none;fillColor=#1699D3;" parent="1" vertex="1">
          <mxGeometry x="390.22" y="2494.9999999999995" width="120" height="40" as="geometry" />
        </mxCell>
        <mxCell id="JRAyBpDbyeD6J749J3WN-14" value="" style="edgeStyle=entityRelationEdgeStyle;startArrow=none;endArrow=blockThin;segment=10;curved=1;exitX=1.009;exitY=0.631;exitDx=0;exitDy=0;endFill=1;strokeColor=#1699D3;exitPerimeter=0;" parent="1" source="JRAyBpDbyeD6J749J3WN-2" target="JRAyBpDbyeD6J749J3WN-13" edge="1">
          <mxGeometry relative="1" as="geometry">
            <mxPoint x="330" y="2541.76" as="sourcePoint" />
          </mxGeometry>
        </mxCell>
        <mxCell id="JRAyBpDbyeD6J749J3WN-15" value="&lt;span style=&quot;color: rgb(255 , 255 , 255)&quot;&gt;&amp;lt;prometheus_msgs::ControlCommand&amp;gt;(&quot;/prometheus/control_command&quot;, 10)&lt;/span&gt;&lt;font color=&quot;#ffffff&quot;&gt;&lt;br&gt;&lt;/font&gt;" style="whiteSpace=wrap;html=1;rounded=1;arcSize=50;align=center;verticalAlign=middle;strokeWidth=1;autosize=1;spacing=4;treeFolding=1;treeMoving=1;newEdgeStyle={&quot;edgeStyle&quot;:&quot;entityRelationEdgeStyle&quot;,&quot;startArrow&quot;:&quot;none&quot;,&quot;endArrow&quot;:&quot;none&quot;,&quot;segment&quot;:10,&quot;curved&quot;:1};shadow=0;sketch=0;gradientColor=none;strokeColor=none;fillColor=#64BBE2;" parent="1" vertex="1">
          <mxGeometry x="550" y="2500" width="460" height="30" as="geometry" />
        </mxCell>
        <mxCell id="JRAyBpDbyeD6J749J3WN-20" style="edgeStyle=orthogonalEdgeStyle;rounded=0;orthogonalLoop=1;jettySize=auto;html=1;endArrow=none;endFill=0;strokeColor=#1699D3;" parent="1" source="JRAyBpDbyeD6J749J3WN-17" target="JRAyBpDbyeD6J749J3WN-19" edge="1">
          <mxGeometry relative="1" as="geometry" />
        </mxCell>
        <mxCell id="JRAyBpDbyeD6J749J3WN-17" value="&lt;span style=&quot;color: rgb(255 , 255 , 255)&quot;&gt;message_pub&lt;/span&gt;&lt;font color=&quot;#ffffff&quot;&gt;发布用于&lt;br&gt;地面站显示的提示消息&amp;nbsp;&lt;br&gt;&lt;/font&gt;" style="whiteSpace=wrap;html=1;rounded=1;arcSize=50;align=center;verticalAlign=middle;strokeWidth=1;autosize=1;spacing=4;treeFolding=1;treeMoving=1;newEdgeStyle={&quot;edgeStyle&quot;:&quot;entityRelationEdgeStyle&quot;,&quot;startArrow&quot;:&quot;none&quot;,&quot;endArrow&quot;:&quot;none&quot;,&quot;segment&quot;:10,&quot;curved&quot;:1};shadow=0;sketch=0;gradientColor=none;strokeColor=none;fillColor=#1699D3;" parent="1" vertex="1">
          <mxGeometry x="390.22" y="2546.9999999999995" width="160" height="40" as="geometry" />
        </mxCell>
        <mxCell id="JRAyBpDbyeD6J749J3WN-18" value="" style="edgeStyle=entityRelationEdgeStyle;startArrow=none;endArrow=blockThin;segment=10;curved=1;endFill=1;strokeColor=#1699D3;exitX=1;exitY=0.852;exitDx=0;exitDy=0;exitPerimeter=0;" parent="1" source="JRAyBpDbyeD6J749J3WN-2" target="JRAyBpDbyeD6J749J3WN-17" edge="1">
          <mxGeometry relative="1" as="geometry">
            <mxPoint x="340" y="2510" as="sourcePoint" />
          </mxGeometry>
        </mxCell>
        <mxCell id="JRAyBpDbyeD6J749J3WN-19" value="&lt;font color=&quot;#ffffff&quot;&gt;&amp;lt;prometheus_msgs::Message&amp;gt;(&quot;/prometheus/message/main&quot;, 10);&lt;br&gt;&lt;/font&gt;" style="whiteSpace=wrap;html=1;rounded=1;arcSize=50;align=center;verticalAlign=middle;strokeWidth=1;autosize=1;spacing=4;treeFolding=1;treeMoving=1;newEdgeStyle={&quot;edgeStyle&quot;:&quot;entityRelationEdgeStyle&quot;,&quot;startArrow&quot;:&quot;none&quot;,&quot;endArrow&quot;:&quot;none&quot;,&quot;segment&quot;:10,&quot;curved&quot;:1};shadow=0;sketch=0;gradientColor=none;strokeColor=none;fillColor=#64BBE2;" parent="1" vertex="1">
          <mxGeometry x="590" y="2552" width="400" height="30" as="geometry" />
        </mxCell>
        <mxCell id="lZ4eYMzN808-0IY6pYoJ-3" value="" style="edgeStyle=entityRelationEdgeStyle;startArrow=none;endArrow=blockThin;segment=10;curved=1;exitX=0;exitY=0.5;exitDx=0;exitDy=0;endFill=1;entryX=1;entryY=0.5;entryDx=0;entryDy=0;strokeColor=#97D077;" edge="1" parent="1" target="lZ4eYMzN808-0IY6pYoJ-4" source="em-1HlqMXCPZLSbGFmnV-1964">
          <mxGeometry relative="1" as="geometry">
            <mxPoint x="57.5" y="4385.280000000001" as="sourcePoint" />
            <mxPoint x="277.5" y="4430" as="targetPoint" />
          </mxGeometry>
        </mxCell>
        <mxCell id="lZ4eYMzN808-0IY6pYoJ-4" value="&lt;span style=&quot;color: rgb(255 , 255 , 255)&quot;&gt;setpoint_raw_attitude_pub()&lt;/span&gt;" style="whiteSpace=wrap;html=1;rounded=0;arcSize=50;align=center;verticalAlign=middle;strokeWidth=1;autosize=1;spacing=4;treeFolding=1;treeMoving=1;newEdgeStyle={&quot;edgeStyle&quot;:&quot;entityRelationEdgeStyle&quot;,&quot;startArrow&quot;:&quot;none&quot;,&quot;endArrow&quot;:&quot;none&quot;,&quot;segment&quot;:10,&quot;curved&quot;:1};shadow=0;sketch=0;gradientColor=none;strokeColor=none;fillColor=#97D077;" vertex="1" parent="1">
          <mxGeometry x="168.62" y="4400" width="190" height="30" as="geometry" />
        </mxCell>
        <mxCell id="lZ4eYMzN808-0IY6pYoJ-5" style="edgeStyle=orthogonalEdgeStyle;curved=1;orthogonalLoop=1;jettySize=auto;html=1;startArrow=none;startFill=0;endArrow=none;endFill=0;dashed=1;strokeColor=#1699D3;entryX=0;entryY=0.25;entryDx=0;entryDy=0;exitX=0.069;exitY=0.892;exitDx=0;exitDy=0;exitPerimeter=0;" edge="1" parent="1" source="em-1HlqMXCPZLSbGFmnV-1819" target="I74rr0ujYwUD2AHIowav-16">
          <mxGeometry relative="1" as="geometry">
            <mxPoint x="149.9999999999999" y="1275.4" as="sourcePoint" />
            <mxPoint x="320.96333333333325" y="1680.4" as="targetPoint" />
            <Array as="points">
              <mxPoint x="640" y="1204" />
              <mxPoint x="640" y="1550" />
              <mxPoint x="370" y="1550" />
              <mxPoint x="370" y="1774" />
            </Array>
          </mxGeometry>
        </mxCell>
        <mxCell id="lZ4eYMzN808-0IY6pYoJ-6" style="edgeStyle=orthogonalEdgeStyle;curved=1;orthogonalLoop=1;jettySize=auto;html=1;startArrow=none;startFill=0;endArrow=none;endFill=0;dashed=1;entryX=0;entryY=0.5;entryDx=0;entryDy=0;strokeColor=#97D077;" edge="1" parent="1" source="I74rr0ujYwUD2AHIowav-29" target="I74rr0ujYwUD2AHIowav-59">
          <mxGeometry relative="1" as="geometry">
            <mxPoint x="570" y="1714" as="sourcePoint" />
            <mxPoint x="747" y="2099" as="targetPoint" />
            <Array as="points">
              <mxPoint x="1390" y="1969" />
            </Array>
          </mxGeometry>
        </mxCell>
      </root>
    </mxGraphModel>
  </diagram>
</mxfile>
